<?xml version="1.0" encoding="utf-8"?>
<!-- Generator: Adobe Illustrator 22.1.0, SVG Export Plug-In . SVG Version: 6.00 Build 0)  -->
<svg version="1.1" xmlns="http://www.w3.org/2000/svg" xmlns:xlink="http://www.w3.org/1999/xlink" x="0px" y="0px"
	 viewBox="0 0 500 500" style="enable-background:new 0 0 500 500;" xml:space="preserve">
<style type="text/css">
	.st0{display:none;}
	.st1{display:inline;fill:#ED2024;stroke:#000000;stroke-miterlimit:10;}
	.st2{display:inline;}
	.st3{fill:#020202;}
	.st4{fill:#FFFFFF;}
	.st5{fill:#010101;}
	.st6{fill:#FFFFFF;stroke:#010101;stroke-miterlimit:10;}
	.st7{opacity:0.5;fill:#020202;enable-background:new    ;}
	.st8{display:inline;fill:none;stroke:#000000;stroke-width:3;stroke-miterlimit:10;}
	.st9{display:inline;fill:#020202;enable-background:new    ;}
	.st10{display:inline;fill:#010101;}
	.st11{fill:none;stroke:#FFFFFF;stroke-width:3;stroke-miterlimit:10;}
	.st12{fill:#FFFFFF;enable-background:new    ;}
	.st13{display:inline;fill:none;stroke:#FFFFFF;stroke-width:3;stroke-miterlimit:10;}
	.st14{display:inline;fill:#FFFFFF;enable-background:new    ;}
	.st15{display:inline;fill:#FFFFFF;}
	.st16{display:inline;enable-background:new    ;}
</style>
<g id="fondo" class="st0">
	<rect class="st1" width="500" height="500"/>
</g>
<g id="logo" class="st0">
	<g class="st2">
		
			<rect x="297" y="47.4" transform="matrix(3.209954e-03 -1 1 3.209954e-03 249.1376 359.3899)" class="st3" width="15.7" height="14.7"/>
		<path class="st3" d="M326.7,109.9l0.1-15.7l-14.7-0.1l0.1-15.7l-14.7-0.1l0.1-15.7l-14.7-0.1l-0.1,15.7l-14.7-0.1L253.4,78v0.2
			h-0.3h-14.7V62.5h-14.7v15.7h-14.7v15.7h-14.7v15.7h-14.7v15.7V141v15.7h14.7V141v-15.7h14.7V141v15.7h14.7V141h14.7h14.7h5.9
			h-5.8h14.7V141h0.1l14.7,0.1l14.7,0.1l-0.1,15.7l14.7,0.1l0.1-15.7l0.1-15.7l14.4,0l-0.1,15.7l-0.1,15.7l14.7,0.1l0.1-15.7
			l0.1-15.7l0.1-15.7L326.7,109.9z M238.5,109.7h-14.7V94h14.7V109.7z M267.9,141L267.9,141L267.9,141L267.9,141z M297.4,109.7
			l-14.7-0.1l0.1-15.7l14.7,0.1L297.4,109.7z"/>
		<polygon class="st3" points="267.9,156.8 267.9,172.5 282.5,172.5 297.2,172.6 297.2,156.8 282.6,156.8 		"/>
		<rect x="209.2" y="46.9" class="st3" width="14.7" height="15.7"/>
		<polygon class="st3" points="238.5,172.6 253.1,172.6 253.1,156.8 238.5,156.8 223.8,156.8 223.8,172.6 		"/>
	</g>
	<g class="st2">
		<polygon class="st3" points="422.9,259.8 263.2,452.9 103.5,257.2 154.4,201.9 374.3,201.9 		"/>
		<polygon class="st4" points="401,268.1 263.2,437.4 125.3,265.9 169.3,217.5 359,217.5 		"/>
		<polygon class="st3" points="440.1,348.3 89.8,348.3 53.1,237.6 473.3,237.6 		"/>
		<polygon class="st4" points="151.8,367.1 165.7,404.8 181.7,399.4 201.3,393.1 221.8,391.1 238.4,387.6 253.8,388.2 267.5,386.5 
			281.4,389.2 299.2,390.5 315.5,393.4 330,396.6 345.7,399 360.5,404.8 374.5,367.1 362.6,361.3 347.4,356.5 329.7,351.2 
			308.7,349.5 296.7,346.2 281.7,346.2 270.1,346.2 255.9,346.2 233.7,346.2 218.9,349.5 197,351.1 165.1,359 		"/>
		<g>
			<path class="st3" d="M182.5,413l-17.5-2.8c-3.2-8.6-6.3-17.2-9.5-25.7c-10,2.9-19.9,6.4-31.3,10.8c8.6,6.2,22.7,14.9,22.7,14.9
				s-3.8,18.6-5.3,27.4c15.9-6.2,37.2-14.6,55.1-19v-3.2L182.5,413z"/>
			<path class="st3" d="M379.4,410.5c0,0,14-8.6,22.7-14.9c-11.3-4.4-21.3-8-31.3-10.8c-3.2,8.5-6.3,17.2-9.5,25.7l0,0l-15.6,2.6
				l0,0l-19.8,3.2v1.8c18.7,4,41.8,13.2,58.8,19.8C383.2,429.2,379.4,410.5,379.4,410.5z"/>
			<path class="st3" d="M166.1,408.4l17.5,2.8l13.2,2.1v-13.9C186.4,401.9,176.2,404.8,166.1,408.4z"/>
			<path class="st3" d="M344.6,411.4L344.6,411.4l15.7-2.6c-11.3-4-22.7-7.3-34.3-9.8v15.4L344.6,411.4z"/>
			<path class="st3" d="M202,396.5c20.1-4.3,40.6-6.4,61-6.4c12.8,0,25.5,0.9,38.3,2.5c7.6,1,15.2,2.3,22.7,3.9
				c9.1,2,18.1,4.4,27,7.2c3,0.9,5.9,2,8.9,3l0,0c0.4-1.3,0.8-2.1,1.2-3.3l-3.5-1.2c-10.8-3.7-21.6-6.7-32.6-9
				c-20.2-4.4-41-6.6-61.9-6.6s-41.6,2.2-61.9,6.6c-11,2.4-22,5.4-32.7,9.1l-3.5,1.1c0.6,1.5,0.7,2,1.3,3.5
				C177.9,402.5,189.8,399.2,202,396.5z"/>
			<path class="st3" d="M155.1,365.9c34.8-11.9,71.1-17.9,107.9-17.9h0.3c36.5,0,72.7,6,107.5,17.9l3.5,1.1c0.4-1.3,0.8-2.1,1.2-3.3
				c-11.5-4-23.1-7.4-34.7-10.2c-3.8-0.9-7.5-1.7-11.4-2.5c-10.9-2.2-22-3.8-33-5c-11-1.1-22.1-1.6-33.2-1.6H263
				c-4.8,0-9.5,0.1-14.3,0.3c-21.4,0.9-42.8,3.8-63.7,8.8c-11.6,2.7-23.1,6.2-34.6,10.2c0.6,1.5,0.7,1.9,1.3,3.4L155.1,365.9z"/>
		</g>
	</g>
	<g class="st2">
		<path class="st4" d="M118.4,253.4h15.1c0.2,0,1.8,3.9,4.9,11.9c0.3,0.3,3.4,8.1,9.6,23.4h3.8v-35.3h13.2v42h1.5v16.4h-5.3v3.2h5.3
			v9.7h-19.8v-12.4h-3.5c-4.8-11.6-7.9-19.6-9.7-24v-12.5h-1.9v38h-3v13.1h-12.4v-28.3h2.2v-0.2
			C118.4,274.1,118.4,259.1,118.4,253.4z M140.6,288.6v2.7h8.2c-0.7-1.8-1.1-2.7-1.3-2.7H140.6z M146.7,326.1h24v1.4h-24V326.1z
			 M151.9,288.6v2.7H149c1.8,4.4,2.8,7.3,3.2,8.6h0.1v-0.3c-0.3-4.5-0.3-7.3-0.3-8.2h6v-2.8H151.9z"/>
		<path class="st4" d="M200.3,253.3c10.7,0,17.6,3.7,21,11.1c1.9,3.6,2.8,10.6,2.8,21v0.3h-5.5v2.5h5.5V315h-3.6v9.7h-7.2v2.7h-25.2
			v-2.7H185V315h-6.5v-7.6h3.8v-4h-3.8v4h-9.1v-4h6.9c-0.1-6.1-0.1-10.7-0.1-13.9v-6.3c0-11.7,2-19.6,6-23.6
			C185.8,255.4,191.8,253.3,200.3,253.3z M191.2,278.8h0.2l-0.2,0.2v6.7h-5.6v2.5h5.6c-0.1,10.7-0.1,18.7-0.1,24.2v2.6h12.4v-4.1
			h5.7v-0.2c0-5,0-12-0.1-21.1c0-0.3,0-1.4,0.1-2.8c0-9.7-0.6-15.7-1.7-17.9c-1.2-2.1-3.3-3.2-6.5-3.2h-1.8c-3.8,0-6.1,1.6-7,5
			C191.8,272.2,191.5,275,191.2,278.8z M224.1,285.7h8.9v2.5h-8.9V285.7z"/>
		<path class="st4" d="M229.6,325.4h13.2v1.1h-13.2V325.4z M230.7,253.5h16.5c1.8,6.7,5.6,19.9,11.2,39.8h6.5c0.2,0,0.9-2.4,2.1-7.1
			c2.7-9.4,5.8-20.3,9.2-32.7h15.3v47.9h0.9v8.8h-4.6v1.6h4.6v15.6h-13v-5.7h1.6v-17.7h-2.7v-8.9h-1.6l-0.1,0.5h-1.4v12.6h-4.5v5.9
			h-3.9v10h-9.1v-6.5H252V309h-3.3v-9.1h-1.9c-0.1-0.5-0.5-2.1-1.3-4.8h13.1l-0.3-1.8h-13.1l0.3,1.8h-1.7v11.5h0.9v12.6h-3.2v2.2
			h3.2v3.3H233v-15.2h-2.2L230.7,253.5L230.7,253.5z M239.6,293.3v1.8h4.1v-1.8H239.6z M243.7,288.1v0.9c0,0.8,0.1,2.2,0.2,4.4h1.3
			c-0.9-3.3-1.3-5-1.3-5.2H243.7z M258.9,295c0.5,2.6,0.9,4,1.1,4h1.5v6.7h2.3v-10.3h0.6v-0.3L258.9,295L258.9,295z M265.2,293.3
			l-0.3,1.8h11.8c0.3-0.9,0.4-1.5,0.4-1.8H265.2z M278.2,288.2l-1.1,5h1.1c0.1-2.1,0.2-3.7,0.2-4.6v-0.4H278.2z M278.4,293.3v1.8h9
			v-1.8H278.4z M292.3,310.2h7.5v1.6h-7.5V310.2z"/>
		<path class="st4" d="M302.6,253.2h14c0.2,0,0.2,0.1,0.2,0.3v36c0,0.2-0.1,0.3-0.2,0.3H315v37.4c0,0.2-0.1,0.3-0.3,0.3h-12
			c-0.2,0-0.3-0.1-0.3-0.3v-38.3h-3.8c-0.2,0-0.3-0.1-0.3-0.3V287c0-0.2,0.1-0.3,0.3-0.3h3.8v-33.3
			C302.3,253.3,302.4,253.2,302.6,253.2z M302.4,286.8v2.1h7.2v-2.1H302.4z"/>
		<path class="st4" d="M331.4,245.7c1.5,0,3.1,1.1,4.6,3.4c1.5,2.2,2.3,4.9,2.3,7.9c0,3.8-1.2,7.7-3.7,11.7
			c-2.5,4.1-4.9,6.1-7.2,6.1v-2.2c2.6-1.5,4-4.8,4.5-9.8c0-4.1-2.2-6.9-6.7-8.4v-2.1L331.4,245.7z"/>
		<path class="st4" d="M344.1,305.4h5v2.7h-5V305.4z M373.1,253.4c8.2,0,13.8,2.6,16.5,7.9c2,4,2.9,7.9,2.9,11.8h-0.1
			c-5.6,0.5-9.5,0.8-11.5,0.8c0-2.7-0.9-5-2.6-6.9c-1.6-0.9-3.1-1.4-4.4-1.4h-2.1c-3.5,0-5.6,1.4-6.4,4.1c-0.2,0.8-0.3,1.5-0.3,1.9
			v1.1c0,3.8,2.1,6.7,6.2,8.4c0.3,0.3,3.2,1.6,8.5,3.8c2.8,1.3,5.5,2.9,7.9,4.9v0.1h-13v1.5h17.2v2.1h2.1v22.5h-4.3v11.5h-33v-11.5
			H349V308h4.4v-2.7H349v-1.8h15.2v12.3h15.4v-18.5H368v-6.1h-14.4v-1.5h6.9v-0.1c-6.1-4-9.1-9.7-9.1-17.2v-1
			c0-6.2,1.9-10.8,5.7-14.1C360.7,254.7,366,253.4,373.1,253.4z M391.9,289.8h5.2v1.5h-5.2V289.8z"/>
	</g>
	<g class="st2">
		<g>
			<path class="st5" d="M215.4,353.1c5.4-0.9,9,0.3,10.7,3.2c0.5,0.7,0.8,1.2,0.8,1.4c-1.4,0.2-2,0.3-3.3,0.4
				c0.1,0.3,0.1,0.6,0.1,0.9c1.5-0.2,2.1-0.3,3.6-0.4c0,0,0,0,0-0.1c0-0.2-0.2-0.4-0.3-0.9c2.5-0.3,3.7-0.4,6.2-0.7
				c0,0.3,0.1,0.6,0.1,0.9c-2.3,0.3-3.5,0.3-5.8,0.6v0.1c0.4,1.3,0.9,2.6,1.1,4.2c0,0.1-2.2,0.5-6.7,1.4c0,0,0,0,0-0.1
				c-0.5-3.8-2.2-5.6-5.1-5.1c-0.3,0.1-0.4,0.1-0.8,0.1c-2.1,0.3-3.3,1.5-3.5,3.2c-0.2,1.5,0,3.4,0.4,5.7c0.3,1.9,0.5,2.8,0.8,4.7
				c0,0.3,0,0.4,0.1,0.7c-0.9,0.2-1.4,0.3-2.3,0.4c0.1,0.4,0.1,0.7,0.2,1.1c0.9-0.2,1.4-0.3,2.3-0.4c0.6,3.3,0.9,5,1.5,8.5
				c3.8-0.7,5.6-0.9,9.4-1.5c-0.4-3.5-0.7-5.3-1.2-8.8c2.2-0.3,3.3-0.4,5.6-0.8c0.4,3.5,0.6,5.3,1,8.8c-1.2,0.2-1.8,0.3-3,0.3
				c0.3,2.1,0.4,3.2,0.7,5.5c-2.5,0.3-3.7,0.5-6.2,0.9c0,0.2,0,0.3,0.1,0.4c-1.9,0.3-2.8,0.4-4.7,0.8c0-0.2-0.1-0.3-0.1-0.4
				c-2,0.3-2.9,0.5-4.8,0.9c-0.2-1.1-0.3-1.6-0.5-2.6c1.3-0.3,2-0.3,3.2-0.6c-0.1-0.4-0.1-0.7-0.2-1.2c-2,0.3-2.9,0.5-4.9,0.9
				c-0.3-1.6-0.4-2.4-0.8-3.9c-0.9,0.2-1.3,0.3-2.1,0.4c-0.4-2-0.6-2.9-0.9-4.9c0.4-0.1,0.7-0.2,1.1-0.3c-0.4-2-0.8-3.6-1-4.8
				c-1-5.3-1.4-8.7-1.1-10.2c0.3-1.6,0.8-3.2,1.8-4.6C208.2,355.2,211.2,353.7,215.4,353.1z"/>
			<path class="st5" d="M234.3,350.4c3.1-0.3,4.7-0.4,7.8-0.6c0.3,5.8,0.5,8.7,0.9,14.6c-0.6,0-0.9,0.1-1.5,0.1
				c0.4,6,0.6,9.1,0.9,15c4.2-0.3,6.2-0.4,10.4-0.5c0,1.3,0.1,1.9,0.1,3.2c-0.9,0-1.2,0-2.1,0.1c0,0.3,0,0.4,0,0.7
				c0.9,0,1.2,0,2.1-0.1c0,0.9,0,1.2,0.1,2.1c-2.6,0.1-3.9,0.1-6.6,0.3c0-0.3,0-0.3,0-0.5c-3.6,0.2-5.5,0.3-9.1,0.7
				c-0.1-0.4-0.1-0.7-0.1-0.9c-0.3-3.2-0.4-4.8-0.7-7.9c0.7-0.1,1.1-0.1,1.8-0.2c0-0.4-0.1-0.6-0.1-1c-0.7,0.1-1.1,0.1-1.8,0.2
				C235.5,365.4,235.1,360.4,234.3,350.4z M253,382.2c1,0,1.5,0,2.6-0.1c0,0.3,0,0.4,0,0.7c-1,0-1.5,0-2.5,0.1
				C253,382.6,253,382.4,253,382.2z"/>
			<path class="st5" d="M260.6,349.4c3,0,4.5,0,7.5,0.2c-0.3,7.5-0.3,11.3-0.5,18.8c-1.4,0-2-0.1-3.3-0.1c0,0.4,0,0.6,0,1
				c1.4,0,2,0,3.3,0.1c0,1.4-0.1,2.1-0.1,3.5c-0.1,3.2,0.4,5.1,1.5,5.6c0.6,0.4,1.3,0.6,2.1,0.6c0.9,0,1.3,0.1,2.1,0.1
				c0.1-2.5,0.2-3.8,0.3-6.2c0.8,0,1.1,0.1,1.9,0.1c0.5-9.2,0.8-13.9,1.4-23.1c3,0.2,4.4,0.3,7.4,0.6c-0.7,8.7-1.1,13.1-1.8,21.7
				c-1-0.1-1.5-0.2-2.5-0.2c-0.1,0.6-0.1,0.9-0.1,1.6c1,0.1,1.5,0.1,2.5,0.2c-0.1,0.5-0.1,0.9-0.2,1.2c-0.3,2.7-0.3,4.2-0.6,6.9
				c-1.4-0.1-2.1-0.2-3.5-0.3c-0.1,1.6-0.2,2.4-0.3,3.9c-6.2-0.4-9.2-0.6-15.4-0.7c0-2,0-2.9,0.1-4.9c-0.6,0-0.9,0-1.5,0
				c0-5.9,0.1-8.8,0.1-14.7c-0.3,0-0.3,0-0.5,0C260.6,358.9,260.6,355.7,260.6,349.4z M267.6,368.3c1.6,0.1,2.4,0.1,4,0.2
				c0,0.4,0,0.6-0.1,1c-1.6-0.1-2.4-0.1-4-0.2C267.6,368.9,267.6,368.6,267.6,368.3z"/>
			<path class="st5" d="M292.8,351.7c4.4,0.5,6.6,0.9,10.9,1.5c4.9,0.8,7.8,2.5,8.6,5c0.5,1.3,0.6,2.9,0.2,5
				c-0.2,0.9-0.3,1.5-0.4,2.4c-0.4,2.3-1.8,3.9-4.1,4.9c0.7,0.3,1.5,0.9,2.4,2.1c0.3,0.1,0.5,0.1,0.8,0.2c0.8,1.2,1.3,2.3,1.4,3.3
				c0,0.3,0,0.5,0,0.6c0.4,0.1,0.6,0.1,0.9,0.2c-0.1,0.3-0.1,0.3-0.1,0.6c-1.3-0.3-2-0.4-3.2-0.7c0.1-0.3,0.1-0.3,0.1-0.6
				c-2.6-0.5-3.9-0.8-6.6-1.3c0.1-0.8,0.2-1.1,0.3-1.8c-2.6-0.4-3.9-0.7-6.6-1c-0.6,4-0.9,6.1-1.4,10.2c1.6,0.3,2.4,0.3,3.9,0.6
				c0.1-0.3,0.1-0.4,0.1-0.7c0.9,0.2,1.5,0.3,2.4,0.4c0.4-2.8,0.7-4.2,1.1-7c2.6,0.4,3.9,0.7,6.6,1.2c-0.4,2.5-0.7,3.7-1.1,6.1
				c0.3,0.1,0.4,0.1,0.7,0.2c-0.3,1.5-0.4,2.3-0.8,3.8c-0.9-0.2-1.3-0.3-2.1-0.4c-0.1,0.3-0.1,0.5-0.2,0.9c0.9,0.2,1.3,0.3,2.1,0.4
				c-0.1,0.6-0.2,0.9-0.3,1.5c-3.2-0.7-4.8-0.9-7.9-1.5c0,0.3-0.1,0.4-0.1,0.7c-3.5-0.6-5.2-0.9-8.7-1.3c0-0.3,0.1-0.4,0.1-0.7
				c-0.8-0.1-1.1-0.2-1.9-0.3c0.3-2.1,0.3-3.2,0.6-5.4c1,0.2,1.6,0.2,2.6,0.3c0.1-0.6,0.1-0.9,0.2-1.5c-1.1-0.2-1.6-0.3-2.6-0.3
				c0.3-2.7,0.5-4.8,0.6-6.2c0.1-1,0.2-1.5,0.3-2.6c-0.9-0.1-1.4-0.2-2.3-0.3c0-0.3,0-0.4,0.1-0.7c0.9,0.1,1.4,0.2,2.3,0.3
				c0.1-0.5,0.1-0.9,0.2-1.4c-0.4-0.1-0.7-0.1-1.1-0.2c0.8-6.7,1.1-10,1.9-16.7C292.7,351.7,292.7,351.6,292.8,351.7z M291.8,370
				c0,0.3-0.1,0.3-0.1,0.6c1.4,0.2,2,0.3,3.3,0.4c0-0.3,0.1-0.3,0.1-0.6C293.8,370.2,293.1,370.1,291.8,370z M299.4,358.5
				c-0.5,3.4-0.7,5.2-1.2,8.6c0.6,0.1,0.9,0.2,1.5,0.3c1.8,0.3,3.1,0.2,3.8-0.3c0.6-0.4,1.2-1.6,1.5-3.7c0-0.1,0-0.1,0-0.1
				c0.3-1.8,0.1-2.9-0.4-3.3c-0.3-0.3-1.6-0.9-4-1.3C300.2,358.7,299.9,358.6,299.4,358.5z M300.4,374.2c1.4,0.3,2.1,0.3,3.3,0.6
				c0,0.3-0.1,0.3-0.1,0.6c-1.4-0.3-2.1-0.3-3.3-0.6C300.3,374.6,300.4,374.4,300.4,374.2z"/>
		</g>
	</g>
	<g class="st2">
		<g>
			<ellipse class="st6" cx="442.2" cy="164.7" rx="49.8" ry="48.3"/>
			<path class="st7" d="M453.4,209.9c-27.5,0-49.8-21.6-49.8-48.3c0-20.1,12.6-37.2,30.7-44.5c-23.7,3.7-41.8,23.6-41.8,47.6
				c0,26.7,22.3,48.3,49.8,48.3c6.7,0,13.2-1.3,19.1-3.7C458.7,209.6,456,209.9,453.4,209.9z"/>
		</g>
		<polygon class="st5" points="430.2,188.4 424.2,185.3 418.2,188.3 419.4,181.9 414.7,177.2 421.4,176.3 424.5,170.5 427.4,176.4 
			434,177.5 429.2,182 		"/>
		<polygon class="st5" points="468,179.5 462.2,176.3 456.1,179.3 457.4,172.9 452.6,168.2 459.3,167.4 462.4,161.5 465.3,167.5 
			472,168.5 467,173 		"/>
		<polygon class="st5" points="438.3,155.6 432.3,152.5 426.4,155.5 427.6,149 422.8,144.4 429.5,143.5 432.6,137.7 435.5,143.6 
			442.2,144.6 437.2,149.2 		"/>
		<polygon class="st5" points="468,152.1 462.2,149 456.1,151.9 457.4,145.5 452.6,140.9 459.3,140 462.4,134.2 465.3,140.1 
			472,141.1 467,145.6 		"/>
	</g>
	<g class="st2">
		<path class="st5" d="M111.2,154.3c8.4,4.8,11,14,6.7,22.7c-0.5,0.9-0.6,2.3-0.3,3.3c2.8,10.5,1.5,20.2-5,29.1
			c-0.3,0.4-0.5,0.9-0.8,1.3c-9.2,13.3-8,12.5-24.3,13.7c-11.6,0.9-21.4-2.8-29.5-11.4c-0.7-0.8-2.1-1-3.2-1.1
			c-6.9-0.3-16.7-8-14.9-17.9c-4.9-0.4-5.3-5.2-7.9-8.3c-0.5,0.6-0.9,1.2-1.5,1.6c-2.1,1.7-4.2,0.6-4.6-2.4c-0.5-3.5-0.9-7-1.5-10.7
			c-3.2,1-6.2,2.1-9.2,2.9c-1.2,0.3-3.2,0.2-3.8-0.6c-0.6-0.7-0.3-2.7,0.3-3.8c2.5-4,5.2-7.9,8-12.1c-3.3-2-6.7-3.7-9.7-5.7
			c-1.2-0.8-2.5-2.3-2.6-3.5c-0.1-0.9,1.8-2.1,3.1-2.6c4.1-1.8,8.3-3.2,12.9-5c-2.1-2.6-3.9-5-5.9-7.4c-0.6-0.7-1.3-1.4-1.6-2.1
			c-0.4-1-1.2-2.6-0.8-3.2c0.6-0.9,2.1-1.6,3.2-1.6c6.1-0.1,12.1,0,18.5,0.1c0.2-3.8,0.3-7.6,0.3-11.4c0.2-4.5,1.3-5.3,5.4-3.6
			c3.8,1.5,7.7,3.1,11.9,4.8c1.4-5,2.6-9.8,4-14.5c0.3-1.2,1.4-2.8,2.4-3.1c0.9-0.3,2.5,0.9,3.3,1.8c2.6,3,5.1,6.2,7.9,9.6
			c3.7-3.8,7.2-7.3,10.8-10.8c0.9-0.9,2.7-1.9,3.4-1.5c1,0.6,1.9,2.2,2.1,3.6c0.5,4.6,0.7,9.2,0.9,14.2c4.9-0.2,9.6-0.5,14.4-0.5
			c1.3,0,3.1,0.7,3.7,1.6c0.4,0.8-0.3,2.6-1,3.7c-2,2.8-4.3,5.4-6.7,8.4c3,2.5,5.8,4.9,8.7,7.1c1.6,1.3,2,2.5,1.1,4.4
			c-0.3,0.8,0,2.2,0.5,3.2C111.8,149,113,151.5,111.2,154.3z M113.3,188.8c0-0.5,0-1.1,0-1.7c-0.3-3.9-0.3-4-4.4-3.5
			c-1.8,0.3-3.6,0.6-5.4,1c-2,0.5-3.6,0.3-4-1.9c-0.4-2.2,0.9-3.1,2.9-3.3c2.5-0.3,5-0.9,7.4-1.3c0.6-0.1,1.4-0.3,1.8-0.8
			c3.6-4.1,3.9-10.8,0.8-15.3c-1.7-2.4-6.6-3.9-8.8-2.7c-18.5,10.3-37,20.7-55.4,31.1c-0.8,0.4-1.5,1.4-1.8,2.1
			c-2.5,7,2.6,14.1,10.3,14.3c2.1,0.1,3.8-0.3,5-2.3c1.1-1.9,2.9-3.3,4.4-5c1.4-1.6,3-2.4,4.7-0.7c1.5,1.6,0.6,3.1-0.8,4.4
			c-1.5,1.5-2.8,3.2-4.3,4.7c-1.7,1.9-1.8,3.5,0.6,4.9c0.8,0.4,1.5,0.9,1.9,1.1c1.7-3.2,3.2-6.3,5-9.2c0.5-0.8,2.7-1.1,3.5-0.6
			c0.8,0.5,1,2.4,0.8,3.5c-0.3,1.5-1.6,2.8-2.3,4.3c-2.3,5-1.5,6.3,4.3,6.7c0.5-2.5,0.9-5,1.5-7.3c0.4-1.8,1.2-3.4,3.5-2.9
			c2.2,0.5,2.2,2.2,1.8,4.1c-0.4,2.1-0.8,4.3-1.2,7.1c5-0.5,9.3-0.9,13.6-1.5c0.9-0.1,2-0.8,2.6-1.5c2.6-3.4,5.2-6.8,8.1-10.8
			c-2.4-1-4.2-1.9-6.1-2.6c-1.8-0.7-3.7-1.3-3-3.7c0.8-2.6,2.8-2.1,4.8-1.4c2.1,0.8,4.4,1.6,6.5,2.4c2.6-5.2,1.9-6.6-3.8-7.3
			c-1-0.1-2.1-0.2-3-0.2c-1.9,0-3.7-0.3-3.8-2.6c-0.1-2.4,1.8-3,3.8-2.9C107.6,188.1,110.4,188.4,113.3,188.8z M30.5,177.3
			c2.3-3.8,4.1-7,6.2-10c1.1-1.6,2.6-3.2,4.2-4.1c13.8-7.9,27.5-15.5,41.3-23.2c1.5-0.9,3.4-1.3,5.1-1.4c3.8-0.2,7.7,0,12.4,0
			c-1.9-1.5-3.1-2.6-4.4-3.5c-2.4-1.6-2.4-3.5-0.6-5.6c1.5-1.7,2.9-3.5,4.6-5.7c-4.1,0.2-7.5,0.2-10.9,0.5c-2.9,0.3-4.1-1-4.2-3.8
			c-0.2-3.4-0.4-6.7-0.7-10.8c-3.1,3.2-5.8,5.8-8.5,8.5c-2.5,2.6-3.8,2.5-6.1-0.3c-1.9-2.3-3.8-4.7-5.6-7c-0.3,0-0.7,0-0.9,0
			c-0.9,3.8-1.8,7.6-2.8,11.4c-0.9,3.5-2.1,4.1-5.5,2.7c-3.7-1.5-7.3-3-11.4-4.5c-0.1,3.8-0.2,7.2-0.3,10.5
			c-0.1,3.6-0.9,4.3-4.4,4.3c-4.7,0-9.5-0.1-14.6-0.1c2.1,2.6,3.8,4.8,5.6,7c2.8,3.4,2.6,4.5-1.4,6.2c-0.9,0.3-1.7,0.6-2.6,0.9
			c-2.7,1.1-5.5,2.2-8.6,3.5c3.1,1.8,5.5,3.2,7.9,4.5c2.6,1.4,2.6,3,1.1,5.2c-1.6,2.4-3.2,4.8-5.3,7.7c1.9-0.6,2.9-0.9,3.9-1.3
			c3.8-1.3,5-0.5,5.6,3.4C29.9,173.7,30.2,175,30.5,177.3z M73.2,170.1c3.7-2.1,7.4-4.2,11.1-6.2c7.4-4.2,7.9-5.7,3.5-13
			c-0.1-0.2-0.2-0.3-0.3-0.5c-2.3-3.7-4.9-4.4-8.7-2.2c-8,4.5-16.1,9.1-24.2,13.5c-7.9,4.4-8.5,6.7-3.4,14.2
			c0.1,0.1,0.1,0.2,0.2,0.3c2.1,3,4.6,3.6,7.9,1.8C64,175.3,68.6,172.6,73.2,170.1z M50,183c-2.6-4.8-5.3-9.5-7.9-14.3
			c-2.1,3.4-4.2,6.9-6.2,10.5c-0.3,0.5-0.4,1.5-0.2,2c1.3,2.6,2.7,5,4.2,7.6C43.6,186.6,47,184.6,50,183z M96.6,156.7
			c3.2-1.8,6.6-3.7,10.3-5.7c-1-1.9-1.9-3.6-3-5.2c-0.4-0.7-1.3-1.5-1.9-1.5C98,144,94,144,89.5,144C92,148.6,94.2,152.6,96.6,156.7
			z"/>
		<path class="st4" d="M113.3,188.8c-2.9-0.3-5.7-0.7-8.5-0.9c-2-0.2-3.8,0.5-3.8,2.9c0.1,2.2,1.9,2.6,3.8,2.6c1,0,2.1,0,3,0.2
			c5.7,0.6,6.4,2.1,3.8,7.3c-2.1-0.8-4.3-1.6-6.5-2.4c-1.9-0.7-4-1.2-4.8,1.4c-0.7,2.4,1.1,3.1,3,3.7c1.9,0.7,3.7,1.5,6.1,2.6
			c-2.9,3.9-5.5,7.4-8.1,10.8c-0.6,0.7-1.6,1.4-2.6,1.5c-4.3,0.6-8.6,0.9-13.6,1.5c0.4-2.7,0.8-5,1.2-7.1c0.4-1.9,0.4-3.6-1.8-4.1
			c-2.2-0.6-3.1,1-3.5,2.9c-0.5,2.5-1,5-1.5,7.3c-5.7-0.4-6.6-1.7-4.3-6.7c0.7-1.5,1.9-2.7,2.3-4.3c0.3-1.1,0-3.1-0.8-3.5
			c-0.8-0.5-3-0.1-3.5,0.6c-1.9,2.8-3.3,6-5,9.2c-0.4-0.3-1.1-0.7-1.9-1.1c-2.4-1.4-2.3-3-0.6-4.9c1.5-1.5,2.7-3.2,4.3-4.7
			c1.4-1.4,2.3-2.9,0.8-4.4c-1.6-1.7-3.2-0.9-4.7,0.7c-1.5,1.7-3.2,3.1-4.4,5c-1.3,2.1-3,2.4-5,2.3c-7.6-0.2-12.7-7.3-10.3-14.3
			c0.3-0.9,1-1.7,1.8-2.1c18.5-10.4,36.9-20.8,55.4-31.1c2.2-1.3,7.1,0.3,8.8,2.7c3.2,4.5,2.8,11.1-0.8,15.3
			c-0.3,0.4-1.2,0.6-1.8,0.8c-2.5,0.5-5,0.9-7.4,1.3c-2,0.3-3.4,1.2-2.9,3.3c0.4,2.1,2.1,2.4,4,1.9c1.8-0.4,3.6-0.8,5.4-1
			c4-0.5,4.1-0.4,4.4,3.5C113.3,187.7,113.3,188.3,113.3,188.8z M64.3,184.6c-2.1,1.1-2.7,3.5-1.7,5.5c0.9,1.8,3.7,2.6,5.6,1.6
			c2-1,2.6-3.5,1.5-5.5C68.6,184.2,66.4,183.5,64.3,184.6z M89,175.2c1.1,2.1,3.4,2.8,5.4,1.9c1.8-0.9,2.7-3.6,1.8-5.5
			c-0.9-2-3.4-2.7-5.5-1.7C88.6,170.9,87.9,173.1,89,175.2z"/>
		<path class="st4" d="M30.5,177.3c-0.3-2.2-0.6-3.5-0.8-4.9c-0.5-3.9-1.7-4.6-5.6-3.4c-1,0.3-2.1,0.7-3.9,1.3
			c2.1-3,3.6-5.4,5.3-7.7c1.5-2.1,1.4-3.8-1.1-5.2c-2.5-1.3-4.9-2.8-7.9-4.5c3.2-1.3,5.9-2.4,8.6-3.5c0.9-0.3,1.7-0.6,2.6-0.9
			c3.9-1.8,4.2-2.9,1.4-6.2c-1.8-2.1-3.5-4.4-5.6-7c5.1,0,9.9,0.1,14.6,0.1c3.5,0,4.3-0.7,4.4-4.3c0.1-3.3,0.2-6.7,0.3-10.5
			c3.9,1.6,7.7,3.1,11.4,4.5c3.3,1.4,4.5,0.8,5.5-2.7c1-3.8,1.9-7.6,2.8-11.4c0.3,0,0.7,0,0.9,0c1.9,2.3,3.8,4.7,5.6,7
			c2.2,2.8,3.6,2.9,6.1,0.3c2.6-2.7,5.4-5.4,8.5-8.5c0.3,4,0.6,7.3,0.7,10.8c0.1,2.8,1.4,4,4.2,3.8c3.4-0.3,6.8-0.3,10.9-0.5
			c-1.8,2.2-3.2,4-4.6,5.7c-1.8,2.1-1.8,3.9,0.6,5.6c1.3,0.9,2.5,2,4.4,3.5c-4.6,0-8.5-0.2-12.4,0c-1.7,0.1-3.6,0.6-5.1,1.4
			c-13.8,7.7-27.7,15.4-41.3,23.2c-1.6,0.9-3.1,2.5-4.2,4.1C34.6,170.3,32.8,173.4,30.5,177.3z"/>
		<path class="st4" d="M73.2,170.1c-4.6,2.6-9.2,5.2-13.8,7.7c-3.2,1.8-5.7,1.2-7.9-1.8c-0.1-0.1-0.1-0.2-0.2-0.3
			c-5-7.5-4.5-9.7,3.4-14.2c8-4.5,16.1-9.1,24.2-13.5c3.8-2.1,6.4-1.5,8.7,2.2c0.1,0.2,0.2,0.3,0.3,0.5c4.3,7.3,3.8,8.9-3.5,13
			C80.7,165.9,76.9,168,73.2,170.1z"/>
		<path class="st4" d="M50,183c-3,1.7-6.4,3.6-10.3,5.7c-1.5-2.6-2.9-5-4.2-7.6c-0.3-0.5-0.1-1.4,0.2-2c2.1-3.6,4.2-7.1,6.2-10.5
			C44.7,173.5,47.4,178.2,50,183z"/>
		<path class="st4" d="M96.6,156.7c-2.3-4.1-4.5-8.1-7.1-12.6c4.5,0,8.5,0,12.5,0.2c0.7,0,1.5,0.9,1.9,1.5c1,1.6,1.9,3.3,3,5.2
			C103.1,153,99.7,155,96.6,156.7z"/>
		<path class="st5" d="M64.3,184.6c2.1-1.1,4.3-0.4,5.4,1.6c1.1,2.1,0.3,4.4-1.5,5.5c-1.8,0.9-4.5,0.2-5.6-1.6
			C61.6,188.1,62.4,185.7,64.3,184.6z"/>
		<path class="st5" d="M89,175.2c-1.1-2.1-0.3-4.3,1.8-5.3c2.1-1,4.4-0.3,5.5,1.7c0.9,1.9,0,4.6-1.8,5.5
			C92.4,178,90.1,177.3,89,175.2z"/>
	</g>
</g>
<g id="logoNegro" class="st0">
	<g class="st2">
		
			<rect x="297" y="47.4" transform="matrix(3.209954e-03 -1 1 3.209954e-03 249.1376 359.3899)" class="st3" width="15.7" height="14.7"/>
		<path class="st3" d="M326.7,109.9l0.1-15.7l-14.7-0.1l0.1-15.7l-14.7-0.1l0.1-15.7l-14.7-0.1l-0.1,15.7l-14.7-0.1L253.4,78v0.2
			h-0.3h-14.7V62.5h-14.7v15.7h-14.7v15.7h-14.7v15.7h-14.7v15.7V141v15.7h14.7V141v-15.7h14.7V141v15.7h14.7V141h14.7h14.7h5.9
			h-5.8h14.7V141h0.1l14.7,0.1l14.7,0.1l-0.1,15.7l14.7,0.1l0.1-15.7l0.1-15.7l14.4,0l-0.1,15.7l-0.1,15.7l14.7,0.1l0.1-15.7
			l0.1-15.7l0.1-15.7L326.7,109.9z M238.5,109.7h-14.7V94h14.7V109.7z M267.9,141L267.9,141L267.9,141L267.9,141z M297.4,109.7
			l-14.7-0.1l0.1-15.7l14.7,0.1L297.4,109.7z"/>
		<polygon class="st3" points="267.9,156.8 267.9,172.5 282.5,172.5 297.2,172.6 297.2,156.8 282.6,156.8 		"/>
		<rect x="209.2" y="46.9" class="st3" width="14.7" height="15.7"/>
		<polygon class="st3" points="238.5,172.6 253.1,172.6 253.1,156.8 238.5,156.8 223.8,156.8 223.8,172.6 		"/>
	</g>
	<ellipse class="st8" cx="442.2" cy="164.7" rx="49.8" ry="48.3"/>
	<path class="st9" d="M453.4,209.9c-27.5,0-49.8-21.6-49.8-48.3c0-20.1,12.6-37.2,30.7-44.5c-23.7,3.7-41.8,23.6-41.8,47.6
		c0,26.7,22.3,48.3,49.8,48.3c6.7,0,13.2-1.3,19.1-3.7C458.7,209.6,456,209.9,453.4,209.9z"/>
	<polygon class="st10" points="430.2,188.4 424.2,185.3 418.2,188.3 419.4,181.9 414.7,177.2 421.4,176.3 424.5,170.5 427.4,176.4 
		434,177.5 429.2,182 	"/>
	<polygon class="st10" points="468,179.5 462.2,176.3 456.1,179.3 457.4,172.9 452.6,168.2 459.3,167.4 462.4,161.5 465.3,167.5 
		472,168.5 467,173 	"/>
	<polygon class="st10" points="438.3,155.6 432.3,152.5 426.4,155.5 427.6,149 422.8,144.4 429.5,143.5 432.6,137.7 435.5,143.6 
		442.2,144.6 437.2,149.2 	"/>
	<polygon class="st10" points="468,152.1 462.2,149 456.1,151.9 457.4,145.5 452.6,140.9 459.3,140 462.4,134.2 465.3,140.1 
		472,141.1 467,145.6 	"/>
	<path class="st10" d="M111.2,154.3c8.4,4.8,11,14,6.7,22.7c-0.5,0.9-0.6,2.3-0.3,3.3c2.8,10.5,1.5,20.2-5,29.1
		c-0.3,0.4-0.5,0.9-0.8,1.3c-9.2,13.3-8,12.5-24.3,13.7c-11.6,0.9-21.4-2.8-29.5-11.4c-0.7-0.8-2.1-1-3.2-1.1
		c-6.9-0.3-16.7-8-14.9-17.9c-4.9-0.4-5.3-5.2-7.9-8.3c-0.5,0.6-0.9,1.2-1.5,1.6c-2.1,1.7-4.2,0.6-4.6-2.4c-0.5-3.5-0.9-7-1.5-10.7
		c-3.2,1-6.2,2.1-9.2,2.9c-1.2,0.3-3.2,0.2-3.8-0.6c-0.6-0.7-0.3-2.7,0.3-3.8c2.5-4,5.2-7.9,8-12.1c-3.3-2-6.7-3.7-9.7-5.7
		c-1.2-0.8-2.5-2.3-2.6-3.5c-0.1-0.9,1.8-2.1,3.1-2.6c4.1-1.8,8.3-3.2,12.9-5c-2.1-2.6-3.9-5-5.9-7.4c-0.6-0.7-1.3-1.4-1.6-2.1
		c-0.4-1-1.2-2.6-0.8-3.2c0.6-0.9,2.1-1.6,3.2-1.6c6.1-0.1,12.1,0,18.5,0.1c0.2-3.8,0.3-7.6,0.3-11.4c0.2-4.5,1.3-5.3,5.4-3.6
		c3.8,1.5,7.7,3.1,11.9,4.8c1.4-5,2.6-9.8,4-14.5c0.3-1.2,1.4-2.8,2.4-3.1c0.9-0.3,2.5,0.9,3.3,1.8c2.6,3,5.1,6.2,7.9,9.6
		c3.7-3.8,7.2-7.3,10.8-10.8c0.9-0.9,2.7-1.9,3.4-1.5c1,0.6,1.9,2.2,2.1,3.6c0.5,4.6,0.7,9.2,0.9,14.2c4.9-0.2,9.6-0.5,14.4-0.5
		c1.3,0,3.1,0.7,3.7,1.6c0.4,0.8-0.3,2.6-1,3.7c-2,2.8-4.3,5.4-6.7,8.4c3,2.5,5.8,4.9,8.7,7.1c1.6,1.3,2,2.5,1.1,4.4
		c-0.3,0.8,0,2.2,0.5,3.2C111.8,149,113,151.5,111.2,154.3z M113.3,188.8c0-0.5,0-1.1,0-1.7c-0.3-3.9-0.3-4-4.4-3.5
		c-1.8,0.3-3.6,0.6-5.4,1c-2,0.5-3.6,0.3-4-1.9c-0.4-2.2,0.9-3.1,2.9-3.3c2.5-0.3,5-0.9,7.4-1.3c0.6-0.1,1.4-0.3,1.8-0.8
		c3.6-4.1,3.9-10.8,0.8-15.3c-1.7-2.4-6.6-3.9-8.8-2.7c-18.5,10.3-37,20.7-55.4,31.1c-0.8,0.4-1.5,1.4-1.8,2.1
		c-2.5,7,2.6,14.1,10.3,14.3c2.1,0.1,3.8-0.3,5-2.3c1.1-1.9,2.9-3.3,4.4-5c1.4-1.6,3-2.4,4.7-0.7c1.5,1.6,0.6,3.1-0.8,4.4
		c-1.5,1.5-2.8,3.2-4.3,4.7c-1.7,1.9-1.8,3.5,0.6,4.9c0.8,0.4,1.5,0.9,1.9,1.1c1.7-3.2,3.2-6.3,5-9.2c0.5-0.8,2.7-1.1,3.5-0.6
		c0.8,0.5,1,2.4,0.8,3.5c-0.3,1.5-1.6,2.8-2.3,4.3c-2.3,5-1.5,6.3,4.3,6.7c0.5-2.5,0.9-5,1.5-7.3c0.4-1.8,1.2-3.4,3.5-2.9
		c2.2,0.5,2.2,2.2,1.8,4.1c-0.4,2.1-0.8,4.3-1.2,7.1c5-0.5,9.3-0.9,13.6-1.5c0.9-0.1,2-0.8,2.6-1.5c2.6-3.4,5.2-6.8,8.1-10.8
		c-2.4-1-4.2-1.9-6.1-2.6c-1.8-0.7-3.7-1.3-3-3.7c0.8-2.6,2.8-2.1,4.8-1.4c2.1,0.8,4.4,1.6,6.5,2.4c2.6-5.2,1.9-6.6-3.8-7.3
		c-1-0.1-2.1-0.2-3-0.2c-1.9,0-3.7-0.3-3.8-2.6c-0.1-2.4,1.8-3,3.8-2.9C107.6,188.1,110.4,188.4,113.3,188.8z M30.5,177.3
		c2.3-3.8,4.1-7,6.2-10c1.1-1.6,2.6-3.2,4.2-4.1c13.8-7.9,27.5-15.5,41.3-23.2c1.5-0.9,3.4-1.3,5.1-1.4c3.8-0.2,7.7,0,12.4,0
		c-1.9-1.5-3.1-2.6-4.4-3.5c-2.4-1.6-2.4-3.5-0.6-5.6c1.5-1.7,2.9-3.5,4.6-5.7c-4.1,0.2-7.5,0.2-10.9,0.5c-2.9,0.3-4.1-1-4.2-3.8
		c-0.2-3.4-0.4-6.7-0.7-10.8c-3.1,3.2-5.8,5.8-8.5,8.5c-2.5,2.6-3.8,2.5-6.1-0.3c-1.9-2.3-3.8-4.7-5.6-7c-0.3,0-0.7,0-0.9,0
		c-0.9,3.8-1.8,7.6-2.8,11.4c-0.9,3.5-2.1,4.1-5.5,2.7c-3.7-1.5-7.3-3-11.4-4.5c-0.1,3.8-0.2,7.2-0.3,10.5c-0.1,3.6-0.9,4.3-4.4,4.3
		c-4.7,0-9.5-0.1-14.6-0.1c2.1,2.6,3.8,4.8,5.6,7c2.8,3.4,2.6,4.5-1.4,6.2c-0.9,0.3-1.7,0.6-2.6,0.9c-2.7,1.1-5.5,2.2-8.6,3.5
		c3.1,1.8,5.5,3.2,7.9,4.5c2.6,1.4,2.6,3,1.1,5.2c-1.6,2.4-3.2,4.8-5.3,7.7c1.9-0.6,2.9-0.9,3.9-1.3c3.8-1.3,5-0.5,5.6,3.4
		C29.9,173.7,30.2,175,30.5,177.3z M73.2,170.1c3.7-2.1,7.4-4.2,11.1-6.2c7.4-4.2,7.9-5.7,3.5-13c-0.1-0.2-0.2-0.3-0.3-0.5
		c-2.3-3.7-4.9-4.4-8.7-2.2c-8,4.5-16.1,9.1-24.2,13.5c-7.9,4.4-8.5,6.7-3.4,14.2c0.1,0.1,0.1,0.2,0.2,0.3c2.1,3,4.6,3.6,7.9,1.8
		C64,175.3,68.6,172.6,73.2,170.1z M50,183c-2.6-4.8-5.3-9.5-7.9-14.3c-2.1,3.4-4.2,6.9-6.2,10.5c-0.3,0.5-0.4,1.5-0.2,2
		c1.3,2.6,2.7,5,4.2,7.6C43.6,186.6,47,184.6,50,183z M96.6,156.7c3.2-1.8,6.6-3.7,10.3-5.7c-1-1.9-1.9-3.6-3-5.2
		c-0.4-0.7-1.3-1.5-1.9-1.5C98,144,94,144,89.5,144C92,148.6,94.2,152.6,96.6,156.7z"/>
	<path class="st10" d="M64.3,184.6c2.1-1.1,4.3-0.4,5.4,1.6c1.1,2.1,0.3,4.4-1.5,5.5c-1.8,0.9-4.5,0.2-5.6-1.6
		C61.6,188.1,62.4,185.7,64.3,184.6z"/>
	<path class="st10" d="M89,175.2c-1.1-2.1-0.3-4.3,1.8-5.3c2.1-1,4.4-0.3,5.5,1.7c0.9,1.9,0,4.6-1.8,5.5
		C92.4,178,90.1,177.3,89,175.2z"/>
	<g class="st2">
		<rect x="239.6" y="293.3" class="st3" width="4.1" height="1.8"/>
		<polygon class="st3" points="258.3,293.3 245.2,293.3 245.5,295 258.6,295 		"/>
		<path class="st3" d="M243.7,288.1v0.9c0,0.8,0.1,2.2,0.2,4.4h1.3c-0.9-3.3-1.3-5-1.3-5.2H243.7z"/>
		<path class="st3" d="M260,299.1h1.5v6.7h2.3v-10.3h0.6v-0.3H259C259.5,297.7,259.9,299.1,260,299.1z"/>
		<path class="st3" d="M207.5,268.9c-1.2-2.1-3.3-3.2-6.5-3.2h-1.8c-3.8,0-6.1,1.6-7,5c-0.4,1.6-0.8,4.4-1,8.2h0.2l-0.2,0.2v6.7
			h-5.6v2.5h5.6c-0.1,10.7-0.1,18.7-0.1,24.2v2.6h12.4v-4.1h5.7v-0.2c0-5,0-12-0.1-21.1c0-0.3,0-1.4,0.1-2.8
			C209.2,277.1,208.6,271.1,207.5,268.9z"/>
		<path class="st3" d="M152.2,300v-0.3c-0.3-4.5-0.3-7.3-0.3-8.2h6v-2.8h-6v2.7H149C150.8,295.7,151.8,298.6,152.2,300L152.2,300z"
			/>
		<path class="st3" d="M147.5,288.6h-6.9v2.7h8.2C148.1,289.6,147.7,288.6,147.5,288.6z"/>
		<rect x="178.6" y="303.4" class="st3" width="3.8" height="4"/>
		<rect x="218.6" y="285.7" class="st3" width="5.5" height="2.5"/>
		<path class="st3" d="M473.3,237.6h-69l-30-35.8h-220l-32.9,35.8H53.1l36.7,110.6h88l85.4,104.6l86.5-104.6h90.4L473.3,237.6z
			 M169.3,217.5H359l16.7,20.2H151L169.3,217.5z M325.3,254.3v-2.1l6.1-6.5c1.5,0,3.1,1.1,4.6,3.4c1.5,2.2,2.3,4.9,2.3,7.9
			c0,3.8-1.2,7.7-3.7,11.7c-2.5,4.1-4.9,6.1-7.2,6.1v-2.2c2.6-1.5,4-4.8,4.5-9.8C332,258.6,329.8,255.8,325.3,254.3z M298.7,288.9
			c-0.2,0-0.3-0.1-0.3-0.3V287c0-0.2,0.1-0.3,0.3-0.3h3.8v2.1h7.2v-2.1h-7.2v-33.3c-0.1-0.2,0-0.3,0.2-0.3h14c0.2,0,0.2,0.1,0.2,0.3
			v36c0,0.2-0.1,0.3-0.2,0.3H315v37.4c0,0.2-0.1,0.3-0.3,0.3h-12c-0.2,0-0.3-0.1-0.3-0.3v-38.3H298.7z M287.8,310.3v1.6h4.6v15.6
			h-13v-5.7h1.6v-17.7h-2.7v-8.9h-1.6l-0.1,0.5h-1.4v12.6h-4.5v5.9h-3.9v10h-9.1v-6.5H252V309h-3.3v-9.1h-1.9
			c-0.1-0.5-0.5-2.1-1.3-4.8h-1.7v11.5h0.9v12.6h-3.2v2.2h3.2v3.3H233v-15.2h-2.2v-21.3h-6.7V315h-3.6v9.7h-7.2v2.7h-25.2v-2.7H185
			V315h-6.5v-7.6h-9.1v-4h6.9c-0.1-6.1-0.1-10.7-0.1-13.9v-6.3c0-11.7,2-19.6,6-23.6c3.6-4.2,9.6-6.3,18-6.3
			c10.7,0,17.6,3.7,21,11.1c1.9,3.6,2.8,10.6,2.8,21v0.3h6.7v-32.2h16.5c1.8,6.7,5.6,19.9,11.2,39.8h6.5c0.2,0,0.9-2.4,2.1-7.1
			c2.7-9.4,5.8-20.3,9.2-32.7h15.3v47.9h0.9v8.7h7.4v1.6h-7.5v-1.5H287.8z M242.9,325.4v1.1h-13.2v-1.1H242.9z M133.6,288.3v-12.5
			h-1.9v38h-3v13.1h-12.4v-28.3h2.2v-0.2c-0.2-24.3-0.2-39.4-0.2-45.1h15.1c0.2,0,1.8,3.9,4.9,11.9c0.3,0.3,3.4,8.1,9.6,23.4h3.8
			v-35.3h13.2v42h1.5v16.4h-5.3v3.2h5.3v9.7h-19.8v-12.4h-3.5C138.5,300.7,135.3,292.7,133.6,288.3z M170.7,327.4h-24v-1.4h24V327.4
			z M263.2,437.4l-71.6-89.1h144.2L263.2,437.4z M397.1,291.3h-5.2v2.1h2.1v22.5h-4.3v11.5h-33v-11.5H349v-7.7h-4.9v-2.7h5v2.6h4.4
			v-2.7H349v-1.8h15.2v12.3h15.4v-18.5H368v-6.1h-14.4v-1.5h6.9v-0.1c-6.1-4-9.1-9.7-9.1-17.2v-1c0-6.2,1.9-10.8,5.7-14.1
			c3.5-2.6,8.8-4,16-4c8.2,0,13.8,2.6,16.5,7.9c2,4,2.9,7.9,2.9,11.8h-0.1c-5.6,0.5-9.5,0.8-11.5,0.8c0-2.7-0.9-5-2.6-6.9
			c-1.6-0.9-3.1-1.4-4.4-1.4h-2.1c-3.5,0-5.6,1.4-6.4,4.1c-0.2,0.8-0.3,1.5-0.3,1.9v1.1c0,3.8,2.1,6.7,6.2,8.4
			c0.3,0.3,3.2,1.6,8.5,3.8c2.8,1.3,5.5,2.9,7.9,4.9v0.1h-13v1.5h17.2v-1.5h5.2V291.3z"/>
		<rect x="278.4" y="293.3" class="st3" width="9" height="1.8"/>
		<path class="st3" d="M264.8,295.1h11.8c0.3-0.9,0.4-1.5,0.4-1.8h-11.9L264.8,295.1z"/>
		<path class="st3" d="M278.4,288.2h-0.2l-1.1,5h1.1c0.1-2.1,0.2-3.7,0.2-4.6V288.2z"/>
	</g>
	<g class="st2">
		<path d="M165,410.2c-3.2-8.6-6.3-17.2-9.5-25.7c-10,2.9-19.9,6.4-31.3,10.8c8.6,6.2,22.7,14.9,22.7,14.9s-3.8,18.6-5.3,27.4
			c15.9-6.2,37.2-14.6,55.1-19v-3.2l-14.3-2.4L165,410.2z"/>
		<path d="M402.1,395.7c-11.3-4.4-21.3-8-31.3-10.8c-3.2,8.5-6.3,17.2-9.5,25.7l-15.6,2.6l-19.8,3.2v1.8c18.7,4,41.8,13.2,58.8,19.8
			c-1.5-8.8-5.3-27.4-5.3-27.4S393.4,401.9,402.1,395.7z"/>
		<path d="M183.6,411.2l13.2,2.1v-13.9c-10.3,2.5-20.6,5.4-30.7,9L183.6,411.2z"/>
		<path d="M326,414.4l18.6-3l15.7-2.6c-11.3-4-22.7-7.3-34.3-9.8V414.4z"/>
		<path d="M359.8,406.7c0.2-0.7,0.5-1.3,0.7-1.9l0,0l14-37.7l-0.2-0.1l0,0c0.4-1.3,0.8-2.1,1.2-3.3c-11.5-4-23.1-7.4-34.7-10.2
			c-3.8-0.9-7.5-1.7-11.4-2.5c-10.9-2.2-22-3.8-33-5c-11-1.1-22.1-1.6-33.2-1.6H263c-4.8,0-9.5,0.1-14.3,0.3
			c-21.4,0.9-42.8,3.8-63.7,8.8c-11.6,2.7-23.1,6.2-34.6,10.2c0.6,1.5,0.7,1.9,1.3,3.4l0.2-0.1l13.3,36.1l-0.3,0.1
			c0.6,1.5,0.7,2,1.3,3.5c11.8-4.4,23.7-7.7,35.9-10.3c20.1-4.3,40.6-6.4,61-6.4c12.8,0,25.5,0.9,38.3,2.5c7.6,1,15.2,2.3,22.7,3.9
			c9.1,2,18.1,4.4,27,7.2C353.9,404.6,356.8,405.7,359.8,406.7z M303.2,371.3c0.1-0.6,0.2-0.9,0.2-1.4c-2.4-0.3-3.6-0.5-6-0.8
			c-0.5,3.2-0.8,4.8-1.3,8.1c1.5,0.2,2.2,0.3,3.6,0.5c0.1-0.2,0.1-0.3,0.1-0.5c0.9,0.1,1.3,0.2,2.2,0.3c0.4-2.2,0.6-3.3,1-5.6
			c2.4,0.3,3.6,0.5,6,1c-0.4,2-0.6,2.9-1,4.8c0.2,0.1,0.4,0.1,0.6,0.1c-0.2,1.2-0.4,1.8-0.7,3.1c-0.8-0.1-1.2-0.2-1.9-0.3
			c-0.1,0.3-0.1,0.4-0.2,0.7c0.8,0.1,1.2,0.2,1.9,0.3c-0.1,0.5-0.2,0.7-0.3,1.2c-2.9-0.5-4.4-0.7-7.3-1.2c0,0.2-0.1,0.3-0.1,0.5
			c-3.2-0.5-4.8-0.7-8-1c0-0.2,0.1-0.3,0.1-0.5c-0.7-0.1-1-0.1-1.7-0.2c0.2-1.7,0.3-2.6,0.5-4.3c0.9,0.1,1.5,0.1,2.4,0.3
			c0.1-0.5,0.1-0.7,0.2-1.2c-1-0.1-1.5-0.2-2.4-0.3c0.2-2.2,0.5-3.8,0.5-4.9c0.1-0.8,0.2-1.2,0.3-2c-0.9-0.1-1.3-0.1-2.1-0.2
			c0-0.2,0-0.3,0.1-0.5c0.9,0.1,1.3,0.1,2.1,0.2c0.1-0.4,0.1-0.7,0.2-1.1c-0.4-0.1-0.6-0.1-1-0.1c0.7-5.3,1-8,1.7-13.3
			c0.2-0.1,0.2-0.1,0.2-0.1c4,0.4,6,0.7,10,1.2c4.5,0.6,7.1,2,7.9,3.9c0.5,1,0.5,2.3,0.2,3.9c-0.2,0.7-0.2,1.2-0.4,1.9
			c-0.4,1.8-1.6,3.1-3.8,3.9c0.6,0.2,1.3,0.7,2.2,1.6c0.3,0.1,0.5,0.1,0.7,0.1c0.7,1,1.2,1.8,1.3,2.7c0,0.3,0,0.4,0,0.5
			c0.4,0.1,0.5,0.1,0.9,0.1c-0.1,0.2-0.1,0.3-0.1,0.5c-1.2-0.2-1.8-0.3-3-0.5c0.1-0.2,0.1-0.3,0.1-0.5
			C306.8,371.9,305.6,371.7,303.2,371.3z M303.3,371.3c0,0.2-0.1,0.3-0.1,0.5c-1.3-0.2-1.9-0.3-3-0.5c0-0.2,0.1-0.3,0.1-0.5
			C301.5,371.1,302.1,371.1,303.3,371.3z M283.8,370.5c-0.1,0.4-0.1,0.7-0.2,1c-0.2,2.2-0.3,3.3-0.5,5.5c-1.3-0.1-2-0.1-3.2-0.2
			c-0.1,1.3-0.2,1.9-0.2,3.1c-5.6-0.3-8.4-0.5-14.1-0.5c0-1.6,0-2.3,0.1-3.9c-0.5,0-0.8,0-1.3,0c0-4.7,0.1-7,0.1-11.7
			c-0.2,0-0.3,0-0.5,0c-0.1-5.2-0.1-7.7-0.1-12.7c2.7,0,4.1,0,6.9,0.1c-0.2,6-0.3,9-0.5,14.9c1.5,0.1,2.2,0.1,3.7,0.1
			c0,0.3,0,0.5-0.1,0.8c-1.5-0.1-2.2-0.1-3.7-0.1c0.1-0.3,0.1-0.5,0.1-0.7c-1.2,0-1.8-0.1-3-0.1c0,0.3,0,0.5,0,0.8
			c1.3,0,1.8,0,3,0.1c0,1.1-0.1,1.7-0.1,2.8c-0.1,2.6,0.4,4.1,1.4,4.5c0.5,0.3,1.2,0.5,2,0.5s1.2,0.1,1.9,0.1c0.1-2,0.2-3,0.3-5
			c0.7,0,1,0.1,1.7,0.1c0.5-7.4,0.7-11.1,1.3-18.4c2.7,0.1,4.1,0.3,6.8,0.5c-0.6,6.9-1,10.4-1.6,17.3c-0.9-0.1-1.4-0.1-2.3-0.1
			c-0.1,0.5-0.1,0.7-0.1,1.3C282.5,370.5,282.8,370.5,283.8,370.5z M259.2,377.1c0,0.2,0,0.3,0,0.5c-0.9,0-1.4,0-2.3,0.1
			c-0.1-0.2-0.1-0.3-0.1-0.5C257.7,377.2,258.2,377.2,259.2,377.1z M242.5,379.7c-0.1-0.3-0.1-0.5-0.1-0.7c-0.2-2.5-0.4-3.8-0.6-6.3
			c0.6-0.1,1-0.1,1.6-0.1c0-0.3-0.1-0.5-0.1-0.8c-0.6,0.1-1,0.1-1.6,0.1c-0.9-8-1.3-12-2-20c2.8-0.2,4.3-0.3,7.1-0.5
			c0.3,4.6,0.5,6.9,0.8,11.6c-0.5,0-0.8,0.1-1.3,0.1c0.4,4.8,0.5,7.2,0.9,12c3.8-0.2,5.7-0.3,9.5-0.4c0,1,0.1,1.5,0.1,2.5
			c-0.8,0-1.1,0-1.9,0.1c0,0.2,0,0.3,0,0.5c0.8,0,1.1,0,1.9-0.1c0,0.7,0,1,0.1,1.6c-2.4,0.1-3.6,0.1-6,0.2c0-0.2,0-0.3,0-0.4
			C247.5,379.3,245.8,379.4,242.5,379.7z M212.7,360.9c0.2-1.3,0.7-2.6,1.6-3.7c1.5-1.6,4.2-2.7,8.1-3.3c4.9-0.7,8.2,0.2,9.8,2.5
			c0.5,0.5,0.7,1,0.7,1.1c2.3-0.2,3.4-0.3,5.6-0.5c0,0.3,0.1,0.5,0.1,0.7c-2.1,0.2-3.2,0.3-5.3,0.5v0.1c0.4,1,0.8,2.1,1,3.3
			c0,0.1-2,0.4-6.2,1.1c0,0,0,0,0-0.1c-0.5-3.1-2-4.5-4.7-4.1c-0.3,0.1-0.4,0.1-0.7,0.1c-2,0.3-3,1.2-3.2,2.5
			c-0.2,1.2,0,2.7,0.4,4.6c0.3,1.5,0.5,2.2,0.7,3.7c0,0.2,0,0.3,0.1,0.5c-0.9,0.1-1.3,0.2-2.1,0.3c0.1,0.3,0.1,0.5,0.2,0.9
			c0.9-0.1,1.3-0.2,2.1-0.3c0.5,2.7,0.8,4,1.3,6.7c3.4-0.5,5.2-0.7,8.6-1.2c-0.4-2.8-0.6-4.2-1.1-7c2-0.3,3-0.3,5.1-0.6
			c0.4,2.8,0.5,4.2,0.9,7c-1.1,0.1-1.6,0.2-2.7,0.3c0.2,1.7,0.4,2.6,0.6,4.4c-2.3,0.3-3.4,0.4-5.6,0.7c0,0.1,0,0.2,0.1,0.3
			c-1.7,0.3-2.6,0.3-4.3,0.6c0-0.1-0.1-0.2-0.1-0.3c-1.8,0.3-2.7,0.4-4.4,0.7c-0.2-0.9-0.2-1.3-0.5-2.1c1.2-0.2,1.8-0.3,3-0.5
			c-0.1-0.3-0.1-0.5-0.2-1c-1.8,0.3-2.7,0.4-4.5,0.7c-0.3-1.3-0.4-1.9-0.7-3.1c-0.8,0.1-1.2,0.2-2,0.3c-0.4-1.6-0.5-2.3-0.9-3.9
			c0.4-0.1,0.6-0.1,1-0.2c-0.4-1.6-0.7-2.9-0.9-3.8C212.8,364.8,212.5,362.1,212.7,360.9z M238.4,387.6l0.7,0c-0.5,0-1,0.1-1.6,0.1
			L238.4,387.6z M267.5,386.5l0.8,0.2c-0.6,0-1.2,0-1.9,0L267.5,386.5z M201,393.2l0.3-0.1l0.3,0C201.4,393.1,201.2,393.2,201,393.2
			C201,393.2,201,393.2,201,393.2z"/>
		<path d="M300.4,358.5c-0.3-0.1-0.5-0.1-1-0.2c-0.5,2.7-0.6,4.2-1.1,6.9c0.5,0.1,0.9,0.1,1.4,0.2c1.6,0.2,2.8,0.1,3.4-0.2
			c0.5-0.3,1.1-1.3,1.3-2.9c0-0.1,0-0.1,0-0.1c0.2-1.4,0.1-2.3-0.4-2.7C303.7,359.3,302.6,358.9,300.4,358.5z"/>
		<path d="M292.3,367.9c1.3,0.1,1.8,0.2,3,0.3c0-0.2,0.1-0.3,0.1-0.5c-1.3-0.1-1.9-0.2-3-0.3C292.4,367.7,292.3,367.7,292.3,367.9z"
			/>
		<path d="M229.9,358.7c1.3-0.1,2-0.2,3.3-0.3c0,0,0,0,0-0.1c0-0.1-0.2-0.3-0.3-0.7c-1.3,0.1-1.8,0.2-3,0.3
			C229.9,358.2,229.9,358.4,229.9,358.7z"/>
	</g>
</g>
<g id="logoBlanco">
	<g>
		
			<rect x="297" y="47.4" transform="matrix(3.209954e-03 -1 1 3.209954e-03 249.1376 359.3899)" class="st4" width="15.7" height="14.7"/>
		<path class="st4" d="M326.7,109.9l0.1-15.7l-14.7-0.1l0.1-15.7l-14.7-0.1l0.1-15.7l-14.7-0.1l-0.1,15.7l-14.7-0.1L253.4,78v0.2
			h-0.3h-14.7V62.5h-14.7v15.7h-14.7v15.7h-14.7v15.7h-14.7v15.7V141v15.7h14.7V141v-15.7h14.7V141v15.7h14.7V141h14.7h14.7h5.9
			h-5.8h14.7V141h0.1l14.7,0.1l14.7,0.1l-0.1,15.7l14.7,0.1l0.1-15.7l0.1-15.7l14.4,0l-0.1,15.7l-0.1,15.7l14.7,0.1l0.1-15.7
			l0.1-15.7l0.1-15.7L326.7,109.9z M238.5,109.7h-14.7V94h14.7V109.7z M267.9,141L267.9,141L267.9,141L267.9,141z M297.4,109.7
			l-14.7-0.1l0.1-15.7l14.7,0.1L297.4,109.7z"/>
		<polygon class="st4" points="267.9,156.8 267.9,172.5 282.5,172.5 297.2,172.6 297.2,156.8 282.6,156.8 		"/>
		<rect x="209.2" y="46.9" class="st4" width="14.7" height="15.7"/>
		<polygon class="st4" points="238.5,172.6 253.1,172.6 253.1,156.8 238.5,156.8 223.8,156.8 223.8,172.6 		"/>
	</g>
	<ellipse class="st11" cx="442.2" cy="164.7" rx="49.8" ry="48.3"/>
	<path class="st12" d="M453.4,209.9c-27.5,0-49.8-21.6-49.8-48.3c0-20.1,12.6-37.2,30.7-44.5c-23.7,3.7-41.8,23.6-41.8,47.6
		c0,26.7,22.3,48.3,49.8,48.3c6.7,0,13.2-1.3,19.1-3.7C458.7,209.6,456,209.9,453.4,209.9z"/>
	<polygon class="st4" points="430.2,188.4 424.2,185.3 418.2,188.3 419.4,181.9 414.7,177.2 421.4,176.3 424.5,170.5 427.4,176.4 
		434,177.5 429.2,182 	"/>
	<polygon class="st4" points="468,179.5 462.2,176.3 456.1,179.3 457.4,172.9 452.6,168.2 459.3,167.4 462.4,161.5 465.3,167.5 
		472,168.5 467,173 	"/>
	<polygon class="st4" points="438.3,155.6 432.3,152.5 426.4,155.5 427.6,149 422.8,144.4 429.5,143.5 432.6,137.7 435.5,143.6 
		442.2,144.6 437.2,149.2 	"/>
	<polygon class="st4" points="468,152.1 462.2,149 456.1,151.9 457.4,145.5 452.6,140.9 459.3,140 462.4,134.2 465.3,140.1 
		472,141.1 467,145.6 	"/>
	<g>
		<path class="st4" d="M111.2,154.3c8.4,4.8,11,14,6.7,22.7c-0.5,0.9-0.6,2.3-0.3,3.3c2.8,10.5,1.5,20.2-5,29.1
			c-0.3,0.4-0.5,0.9-0.8,1.3c-9.2,13.3-8,12.5-24.3,13.7c-11.6,0.9-21.4-2.8-29.5-11.4c-0.7-0.8-2.1-1-3.2-1.1
			c-6.9-0.3-16.7-8-14.9-17.9c-4.9-0.4-5.3-5.2-7.9-8.3c-0.5,0.6-0.9,1.2-1.5,1.6c-2.1,1.7-4.2,0.6-4.6-2.4c-0.5-3.5-0.9-7-1.5-10.7
			c-3.2,1-6.2,2.1-9.2,2.9c-1.2,0.3-3.2,0.2-3.8-0.6c-0.6-0.7-0.3-2.7,0.3-3.8c2.5-4,5.2-7.9,8-12.1c-3.3-2-6.7-3.7-9.7-5.7
			c-1.2-0.8-2.5-2.3-2.6-3.5c-0.1-0.9,1.8-2.1,3.1-2.6c4.1-1.8,8.3-3.2,12.9-5c-2.1-2.6-3.9-5-5.9-7.4c-0.6-0.7-1.3-1.4-1.6-2.1
			c-0.4-1-1.2-2.6-0.8-3.2c0.6-0.9,2.1-1.6,3.2-1.6c6.1-0.1,12.1,0,18.5,0.1c0.2-3.8,0.3-7.6,0.3-11.4c0.2-4.5,1.3-5.3,5.4-3.6
			c3.8,1.5,7.7,3.1,11.9,4.8c1.4-5,2.6-9.8,4-14.5c0.3-1.2,1.4-2.8,2.4-3.1c0.9-0.3,2.5,0.9,3.3,1.8c2.6,3,5.1,6.2,7.9,9.6
			c3.7-3.8,7.2-7.3,10.8-10.8c0.9-0.9,2.7-1.9,3.4-1.5c1,0.6,1.9,2.2,2.1,3.6c0.5,4.6,0.7,9.2,0.9,14.2c4.9-0.2,9.6-0.5,14.4-0.5
			c1.3,0,3.1,0.7,3.7,1.6c0.4,0.8-0.3,2.6-1,3.7c-2,2.8-4.3,5.4-6.7,8.4c3,2.5,5.8,4.9,8.7,7.1c1.6,1.3,2,2.5,1.1,4.4
			c-0.3,0.8,0,2.2,0.5,3.2C111.8,149,113,151.5,111.2,154.3z M113.3,188.8c0-0.5,0-1.1,0-1.7c-0.3-3.9-0.3-4-4.4-3.5
			c-1.8,0.3-3.6,0.6-5.4,1c-2,0.5-3.6,0.3-4-1.9c-0.4-2.2,0.9-3.1,2.9-3.3c2.5-0.3,5-0.9,7.4-1.3c0.6-0.1,1.4-0.3,1.8-0.8
			c3.6-4.1,3.9-10.8,0.8-15.3c-1.7-2.4-6.6-3.9-8.8-2.7c-18.5,10.3-37,20.7-55.4,31.1c-0.8,0.4-1.5,1.4-1.8,2.1
			c-2.5,7,2.6,14.1,10.3,14.3c2.1,0.1,3.8-0.3,5-2.3c1.1-1.9,2.9-3.3,4.4-5c1.4-1.6,3-2.4,4.7-0.7c1.5,1.6,0.6,3.1-0.8,4.4
			c-1.5,1.5-2.8,3.2-4.3,4.7c-1.7,1.9-1.8,3.5,0.6,4.9c0.8,0.4,1.5,0.9,1.9,1.1c1.7-3.2,3.2-6.3,5-9.2c0.5-0.8,2.7-1.1,3.5-0.6
			c0.8,0.5,1,2.4,0.8,3.5c-0.3,1.5-1.6,2.8-2.3,4.3c-2.3,5-1.5,6.3,4.3,6.7c0.5-2.5,0.9-5,1.5-7.3c0.4-1.8,1.2-3.4,3.5-2.9
			c2.2,0.5,2.2,2.2,1.8,4.1c-0.4,2.1-0.8,4.3-1.2,7.1c5-0.5,9.3-0.9,13.6-1.5c0.9-0.1,2-0.8,2.6-1.5c2.6-3.4,5.2-6.8,8.1-10.8
			c-2.4-1-4.2-1.9-6.1-2.6c-1.8-0.7-3.7-1.3-3-3.7c0.8-2.6,2.8-2.1,4.8-1.4c2.1,0.8,4.4,1.6,6.5,2.4c2.6-5.2,1.9-6.6-3.8-7.3
			c-1-0.1-2.1-0.2-3-0.2c-1.9,0-3.7-0.3-3.8-2.6c-0.1-2.4,1.8-3,3.8-2.9C107.6,188.1,110.4,188.4,113.3,188.8z M30.5,177.3
			c2.3-3.8,4.1-7,6.2-10c1.1-1.6,2.6-3.2,4.2-4.1c13.8-7.9,27.5-15.5,41.3-23.2c1.5-0.9,3.4-1.3,5.1-1.4c3.8-0.2,7.7,0,12.4,0
			c-1.9-1.5-3.1-2.6-4.4-3.5c-2.4-1.6-2.4-3.5-0.6-5.6c1.5-1.7,2.9-3.5,4.6-5.7c-4.1,0.2-7.5,0.2-10.9,0.5c-2.9,0.3-4.1-1-4.2-3.8
			c-0.2-3.4-0.4-6.7-0.7-10.8c-3.1,3.2-5.8,5.8-8.5,8.5c-2.5,2.6-3.8,2.5-6.1-0.3c-1.9-2.3-3.8-4.7-5.6-7c-0.3,0-0.7,0-0.9,0
			c-0.9,3.8-1.8,7.6-2.8,11.4c-0.9,3.5-2.1,4.1-5.5,2.7c-3.7-1.5-7.3-3-11.4-4.5c-0.1,3.8-0.2,7.2-0.3,10.5
			c-0.1,3.6-0.9,4.3-4.4,4.3c-4.7,0-9.5-0.1-14.6-0.1c2.1,2.6,3.8,4.8,5.6,7c2.8,3.4,2.6,4.5-1.4,6.2c-0.9,0.3-1.7,0.6-2.6,0.9
			c-2.7,1.1-5.5,2.2-8.6,3.5c3.1,1.8,5.5,3.2,7.9,4.5c2.6,1.4,2.6,3,1.1,5.2c-1.6,2.4-3.2,4.8-5.3,7.7c1.9-0.6,2.9-0.9,3.9-1.3
			c3.8-1.3,5-0.5,5.6,3.4C29.9,173.7,30.2,175,30.5,177.3z M73.2,170.1c3.7-2.1,7.4-4.2,11.1-6.2c7.4-4.2,7.9-5.7,3.5-13
			c-0.1-0.2-0.2-0.3-0.3-0.5c-2.3-3.7-4.9-4.4-8.7-2.2c-8,4.5-16.1,9.1-24.2,13.5c-7.9,4.4-8.5,6.7-3.4,14.2
			c0.1,0.1,0.1,0.2,0.2,0.3c2.1,3,4.6,3.6,7.9,1.8C64,175.3,68.6,172.6,73.2,170.1z M50,183c-2.6-4.8-5.3-9.5-7.9-14.3
			c-2.1,3.4-4.2,6.9-6.2,10.5c-0.3,0.5-0.4,1.5-0.2,2c1.3,2.6,2.7,5,4.2,7.6C43.6,186.6,47,184.6,50,183z M96.6,156.7
			c3.2-1.8,6.6-3.7,10.3-5.7c-1-1.9-1.9-3.6-3-5.2c-0.4-0.7-1.3-1.5-1.9-1.5C98,144,94,144,89.5,144C92,148.6,94.2,152.6,96.6,156.7
			z"/>
		<path class="st4" d="M64.3,184.6c2.1-1.1,4.3-0.4,5.4,1.6c1.1,2.1,0.3,4.4-1.5,5.5c-1.8,0.9-4.5,0.2-5.6-1.6
			C61.6,188.1,62.4,185.7,64.3,184.6z"/>
		<path class="st4" d="M89,175.2c-1.1-2.1-0.3-4.3,1.8-5.3c2.1-1,4.4-0.3,5.5,1.7c0.9,1.9,0,4.6-1.8,5.5
			C92.4,178,90.1,177.3,89,175.2z"/>
	</g>
	<g>
		<rect x="239.6" y="293.3" class="st4" width="4.1" height="1.8"/>
		<polygon class="st4" points="258.3,293.3 245.2,293.3 245.5,295 258.6,295 		"/>
		<path class="st4" d="M243.7,288.1v0.9c0,0.8,0.1,2.2,0.2,4.4h1.3c-0.9-3.3-1.3-5-1.3-5.2H243.7z"/>
		<path class="st4" d="M260,299.1h1.5v6.7h2.3v-10.3h0.6v-0.3H259C259.5,297.7,259.9,299.1,260,299.1z"/>
		<path class="st4" d="M207.5,268.9c-1.2-2.1-3.3-3.2-6.5-3.2h-1.8c-3.8,0-6.1,1.6-7,5c-0.4,1.6-0.8,4.4-1,8.2h0.2l-0.2,0.2v6.7
			h-5.6v2.5h5.6c-0.1,10.7-0.1,18.7-0.1,24.2v2.6h12.4v-4.1h5.7v-0.2c0-5,0-12-0.1-21.1c0-0.3,0-1.4,0.1-2.8
			C209.2,277.1,208.6,271.1,207.5,268.9z"/>
		<path class="st4" d="M152.2,300v-0.3c-0.3-4.5-0.3-7.3-0.3-8.2h6v-2.8h-6v2.7H149C150.8,295.7,151.8,298.6,152.2,300L152.2,300z"
			/>
		<path class="st4" d="M147.5,288.6h-6.9v2.7h8.2C148.1,289.6,147.7,288.6,147.5,288.6z"/>
		<rect x="178.6" y="303.4" class="st4" width="3.8" height="4"/>
		<rect x="218.6" y="285.7" class="st4" width="5.5" height="2.5"/>
		<path class="st4" d="M473.3,237.6h-69l-30-35.8h-220l-32.9,35.8H53.1l36.7,110.6h88l85.4,104.6l86.5-104.6h90.4L473.3,237.6z
			 M169.3,217.5H359l16.7,20.2H151L169.3,217.5z M325.3,254.3v-2.1l6.1-6.5c1.5,0,3.1,1.1,4.6,3.4c1.5,2.2,2.3,4.9,2.3,7.9
			c0,3.8-1.2,7.7-3.7,11.7c-2.5,4.1-4.9,6.1-7.2,6.1v-2.2c2.6-1.5,4-4.8,4.5-9.8C332,258.6,329.8,255.8,325.3,254.3z M298.7,288.9
			c-0.2,0-0.3-0.1-0.3-0.3V287c0-0.2,0.1-0.3,0.3-0.3h3.8v2.1h7.2v-2.1h-7.2v-33.3c-0.1-0.2,0-0.3,0.2-0.3h14c0.2,0,0.2,0.1,0.2,0.3
			v36c0,0.2-0.1,0.3-0.2,0.3H315v37.4c0,0.2-0.1,0.3-0.3,0.3h-12c-0.2,0-0.3-0.1-0.3-0.3v-38.3H298.7z M287.8,310.3v1.6h4.6v15.6
			h-13v-5.7h1.6v-17.7h-2.7v-8.9h-1.6l-0.1,0.5h-1.4v12.6h-4.5v5.9h-3.9v10h-9.1v-6.5H252V309h-3.3v-9.1h-1.9
			c-0.1-0.5-0.5-2.1-1.3-4.8h-1.7v11.5h0.9v12.6h-3.2v2.2h3.2v3.3H233v-15.2h-2.2v-21.3h-6.7V315h-3.6v9.7h-7.2v2.7h-25.2v-2.7H185
			V315h-6.5v-7.6h-9.1v-4h6.9c-0.1-6.1-0.1-10.7-0.1-13.9v-6.3c0-11.7,2-19.6,6-23.6c3.6-4.2,9.6-6.3,18-6.3
			c10.7,0,17.6,3.7,21,11.1c1.9,3.6,2.8,10.6,2.8,21v0.3h6.7v-32.2h16.5c1.8,6.7,5.6,19.9,11.2,39.8h6.5c0.2,0,0.9-2.4,2.1-7.1
			c2.7-9.4,5.8-20.3,9.2-32.7h15.3v47.9h0.9v8.7h7.4v1.6h-7.5v-1.5H287.8z M242.9,325.4v1.1h-13.2v-1.1H242.9z M133.6,288.3v-12.5
			h-1.9v38h-3v13.1h-12.4v-28.3h2.2v-0.2c-0.2-24.3-0.2-39.4-0.2-45.1h15.1c0.2,0,1.8,3.9,4.9,11.9c0.3,0.3,3.4,8.1,9.6,23.4h3.8
			v-35.3h13.2v42h1.5v16.4h-5.3v3.2h5.3v9.7h-19.8v-12.4h-3.5C138.5,300.7,135.3,292.7,133.6,288.3z M170.7,327.4h-24v-1.4h24V327.4
			z M263.2,437.4l-71.6-89.1h144.2L263.2,437.4z M397.1,291.3h-5.2v2.1h2.1v22.5h-4.3v11.5h-33v-11.5H349v-7.7h-4.9v-2.7h5v2.6h4.4
			v-2.7H349v-1.8h15.2v12.3h15.4v-18.5H368v-6.1h-14.4v-1.5h6.9v-0.1c-6.1-4-9.1-9.7-9.1-17.2v-1c0-6.2,1.9-10.8,5.7-14.1
			c3.5-2.6,8.8-4,16-4c8.2,0,13.8,2.6,16.5,7.9c2,4,2.9,7.9,2.9,11.8h-0.1c-5.6,0.5-9.5,0.8-11.5,0.8c0-2.7-0.9-5-2.6-6.9
			c-1.6-0.9-3.1-1.4-4.4-1.4h-2.1c-3.5,0-5.6,1.4-6.4,4.1c-0.2,0.8-0.3,1.5-0.3,1.9v1.1c0,3.8,2.1,6.7,6.2,8.4
			c0.3,0.3,3.2,1.6,8.5,3.8c2.8,1.3,5.5,2.9,7.9,4.9v0.1h-13v1.5h17.2v-1.5h5.2V291.3z"/>
		<rect x="278.4" y="293.3" class="st4" width="9" height="1.8"/>
		<path class="st4" d="M264.8,295.1h11.8c0.3-0.9,0.4-1.5,0.4-1.8h-11.9L264.8,295.1z"/>
		<path class="st4" d="M278.4,288.2h-0.2l-1.1,5h1.1c0.1-2.1,0.2-3.7,0.2-4.6V288.2z"/>
	</g>
	<g>
		<path class="st4" d="M165,410.2c-3.2-8.6-6.3-17.2-9.5-25.7c-10,2.9-19.9,6.4-31.3,10.8c8.6,6.2,22.7,14.9,22.7,14.9
			s-3.8,18.6-5.3,27.4c15.9-6.2,37.2-14.6,55.1-19v-3.2l-14.3-2.4L165,410.2z"/>
		<path class="st4" d="M402.1,395.7c-11.3-4.4-21.3-8-31.3-10.8c-3.2,8.5-6.3,17.2-9.5,25.7l-15.6,2.6l-19.8,3.2v1.8
			c18.7,4,41.8,13.2,58.8,19.8c-1.5-8.8-5.3-27.4-5.3-27.4S393.4,401.9,402.1,395.7z"/>
		<path class="st4" d="M183.6,411.2l13.2,2.1v-13.9c-10.3,2.5-20.6,5.4-30.7,9L183.6,411.2z"/>
		<path class="st4" d="M326,414.4l18.6-3l15.7-2.6c-11.3-4-22.7-7.3-34.3-9.8V414.4z"/>
		<path class="st4" d="M359.8,406.7c0.2-0.7,0.5-1.3,0.7-1.9l0,0l14-37.7l-0.2-0.1l0,0c0.4-1.3,0.8-2.1,1.2-3.3
			c-11.5-4-23.1-7.4-34.7-10.2c-3.8-0.9-7.5-1.7-11.4-2.5c-10.9-2.2-22-3.8-33-5c-11-1.1-22.1-1.6-33.2-1.6H263
			c-4.8,0-9.5,0.1-14.3,0.3c-21.4,0.9-42.8,3.8-63.7,8.8c-11.6,2.7-23.1,6.2-34.6,10.2c0.6,1.5,0.7,1.9,1.3,3.4l0.2-0.1l13.3,36.1
			l-0.3,0.1c0.6,1.5,0.7,2,1.3,3.5c11.8-4.4,23.7-7.7,35.9-10.3c20.1-4.3,40.6-6.4,61-6.4c12.8,0,25.5,0.9,38.3,2.5
			c7.6,1,15.2,2.3,22.7,3.9c9.1,2,18.1,4.4,27,7.2C353.9,404.6,356.8,405.7,359.8,406.7z M303.2,371.3c0.1-0.6,0.2-0.9,0.2-1.4
			c-2.4-0.3-3.6-0.5-6-0.8c-0.5,3.2-0.8,4.8-1.3,8.1c1.5,0.2,2.2,0.3,3.6,0.5c0.1-0.2,0.1-0.3,0.1-0.5c0.9,0.1,1.3,0.2,2.2,0.3
			c0.4-2.2,0.6-3.3,1-5.6c2.4,0.3,3.6,0.5,6,1c-0.4,2-0.6,2.9-1,4.8c0.2,0.1,0.4,0.1,0.6,0.1c-0.2,1.2-0.4,1.8-0.7,3.1
			c-0.8-0.1-1.2-0.2-1.9-0.3c-0.1,0.3-0.1,0.4-0.2,0.7c0.8,0.1,1.2,0.2,1.9,0.3c-0.1,0.5-0.2,0.7-0.3,1.2c-2.9-0.5-4.4-0.7-7.3-1.2
			c0,0.2-0.1,0.3-0.1,0.5c-3.2-0.5-4.8-0.7-8-1c0-0.2,0.1-0.3,0.1-0.5c-0.7-0.1-1-0.1-1.7-0.2c0.2-1.7,0.3-2.6,0.5-4.3
			c0.9,0.1,1.5,0.1,2.4,0.3c0.1-0.5,0.1-0.7,0.2-1.2c-1-0.1-1.5-0.2-2.4-0.3c0.2-2.2,0.5-3.8,0.5-4.9c0.1-0.8,0.2-1.2,0.3-2
			c-0.9-0.1-1.3-0.1-2.1-0.2c0-0.2,0-0.3,0.1-0.5c0.9,0.1,1.3,0.1,2.1,0.2c0.1-0.4,0.1-0.7,0.2-1.1c-0.4-0.1-0.6-0.1-1-0.1
			c0.7-5.3,1-8,1.7-13.3c0.2-0.1,0.2-0.1,0.2-0.1c4,0.4,6,0.7,10,1.2c4.5,0.6,7.1,2,7.9,3.9c0.5,1,0.5,2.3,0.2,3.9
			c-0.2,0.7-0.2,1.2-0.4,1.9c-0.4,1.8-1.6,3.1-3.8,3.9c0.6,0.2,1.3,0.7,2.2,1.6c0.3,0.1,0.5,0.1,0.7,0.1c0.7,1,1.2,1.8,1.3,2.7
			c0,0.3,0,0.4,0,0.5c0.4,0.1,0.5,0.1,0.9,0.1c-0.1,0.2-0.1,0.3-0.1,0.5c-1.2-0.2-1.8-0.3-3-0.5c0.1-0.2,0.1-0.3,0.1-0.5
			C306.8,371.9,305.6,371.7,303.2,371.3z M303.3,371.3c0,0.2-0.1,0.3-0.1,0.5c-1.3-0.2-1.9-0.3-3-0.5c0-0.2,0.1-0.3,0.1-0.5
			C301.5,371.1,302.1,371.1,303.3,371.3z M283.8,370.5c-0.1,0.4-0.1,0.7-0.2,1c-0.2,2.2-0.3,3.3-0.5,5.5c-1.3-0.1-2-0.1-3.2-0.2
			c-0.1,1.3-0.2,1.9-0.2,3.1c-5.6-0.3-8.4-0.5-14.1-0.5c0-1.6,0-2.3,0.1-3.9c-0.5,0-0.8,0-1.3,0c0-4.7,0.1-7,0.1-11.7
			c-0.2,0-0.3,0-0.5,0c-0.1-5.2-0.1-7.7-0.1-12.7c2.7,0,4.1,0,6.9,0.1c-0.2,6-0.3,9-0.5,14.9c1.5,0.1,2.2,0.1,3.7,0.1
			c0,0.3,0,0.5-0.1,0.8c-1.5-0.1-2.2-0.1-3.7-0.1c0.1-0.3,0.1-0.5,0.1-0.7c-1.2,0-1.8-0.1-3-0.1c0,0.3,0,0.5,0,0.8
			c1.3,0,1.8,0,3,0.1c0,1.1-0.1,1.7-0.1,2.8c-0.1,2.6,0.4,4.1,1.4,4.5c0.5,0.3,1.2,0.5,2,0.5s1.2,0.1,1.9,0.1c0.1-2,0.2-3,0.3-5
			c0.7,0,1,0.1,1.7,0.1c0.5-7.4,0.7-11.1,1.3-18.4c2.7,0.1,4.1,0.3,6.8,0.5c-0.6,6.9-1,10.4-1.6,17.3c-0.9-0.1-1.4-0.1-2.3-0.1
			c-0.1,0.5-0.1,0.7-0.1,1.3C282.5,370.5,282.8,370.5,283.8,370.5z M259.2,377.1c0,0.2,0,0.3,0,0.5c-0.9,0-1.4,0-2.3,0.1
			c-0.1-0.2-0.1-0.3-0.1-0.5C257.7,377.2,258.2,377.2,259.2,377.1z M242.5,379.7c-0.1-0.3-0.1-0.5-0.1-0.7c-0.2-2.5-0.4-3.8-0.6-6.3
			c0.6-0.1,1-0.1,1.6-0.1c0-0.3-0.1-0.5-0.1-0.8c-0.6,0.1-1,0.1-1.6,0.1c-0.9-8-1.3-12-2-20c2.8-0.2,4.3-0.3,7.1-0.5
			c0.3,4.6,0.5,6.9,0.8,11.6c-0.5,0-0.8,0.1-1.3,0.1c0.4,4.8,0.5,7.2,0.9,12c3.8-0.2,5.7-0.3,9.5-0.4c0,1,0.1,1.5,0.1,2.5
			c-0.8,0-1.1,0-1.9,0.1c0,0.2,0,0.3,0,0.5c0.8,0,1.1,0,1.9-0.1c0,0.7,0,1,0.1,1.6c-2.4,0.1-3.6,0.1-6,0.2c0-0.2,0-0.3,0-0.4
			C247.5,379.3,245.8,379.4,242.5,379.7z M212.7,360.9c0.2-1.3,0.7-2.6,1.6-3.7c1.5-1.6,4.2-2.7,8.1-3.3c4.9-0.7,8.2,0.2,9.8,2.5
			c0.5,0.5,0.7,1,0.7,1.1c2.3-0.2,3.4-0.3,5.6-0.5c0,0.3,0.1,0.5,0.1,0.7c-2.1,0.2-3.2,0.3-5.3,0.5v0.1c0.4,1,0.8,2.1,1,3.3
			c0,0.1-2,0.4-6.2,1.1c0,0,0,0,0-0.1c-0.5-3.1-2-4.5-4.7-4.1c-0.3,0.1-0.4,0.1-0.7,0.1c-2,0.3-3,1.2-3.2,2.5
			c-0.2,1.2,0,2.7,0.4,4.6c0.3,1.5,0.5,2.2,0.7,3.7c0,0.2,0,0.3,0.1,0.5c-0.9,0.1-1.3,0.2-2.1,0.3c0.1,0.3,0.1,0.5,0.2,0.9
			c0.9-0.1,1.3-0.2,2.1-0.3c0.5,2.7,0.8,4,1.3,6.7c3.4-0.5,5.2-0.7,8.6-1.2c-0.4-2.8-0.6-4.2-1.1-7c2-0.3,3-0.3,5.1-0.6
			c0.4,2.8,0.5,4.2,0.9,7c-1.1,0.1-1.6,0.2-2.7,0.3c0.2,1.7,0.4,2.6,0.6,4.4c-2.3,0.3-3.4,0.4-5.6,0.7c0,0.1,0,0.2,0.1,0.3
			c-1.7,0.3-2.6,0.3-4.3,0.6c0-0.1-0.1-0.2-0.1-0.3c-1.8,0.3-2.7,0.4-4.4,0.7c-0.2-0.9-0.2-1.3-0.5-2.1c1.2-0.2,1.8-0.3,3-0.5
			c-0.1-0.3-0.1-0.5-0.2-1c-1.8,0.3-2.7,0.4-4.5,0.7c-0.3-1.3-0.4-1.9-0.7-3.1c-0.8,0.1-1.2,0.2-2,0.3c-0.4-1.6-0.5-2.3-0.9-3.9
			c0.4-0.1,0.6-0.1,1-0.2c-0.4-1.6-0.7-2.9-0.9-3.8C212.8,364.8,212.5,362.1,212.7,360.9z M238.4,387.6l0.7,0c-0.5,0-1,0.1-1.6,0.1
			L238.4,387.6z M267.5,386.5l0.8,0.2c-0.6,0-1.2,0-1.9,0L267.5,386.5z M201,393.2l0.3-0.1l0.3,0C201.4,393.1,201.2,393.2,201,393.2
			C201,393.2,201,393.2,201,393.2z"/>
		<path class="st4" d="M300.4,358.5c-0.3-0.1-0.5-0.1-1-0.2c-0.5,2.7-0.6,4.2-1.1,6.9c0.5,0.1,0.9,0.1,1.4,0.2
			c1.6,0.2,2.8,0.1,3.4-0.2c0.5-0.3,1.1-1.3,1.3-2.9c0-0.1,0-0.1,0-0.1c0.2-1.4,0.1-2.3-0.4-2.7
			C303.7,359.3,302.6,358.9,300.4,358.5z"/>
		<path class="st4" d="M292.3,367.9c1.3,0.1,1.8,0.2,3,0.3c0-0.2,0.1-0.3,0.1-0.5c-1.3-0.1-1.9-0.2-3-0.3
			C292.4,367.7,292.3,367.7,292.3,367.9z"/>
		<path class="st4" d="M229.9,358.7c1.3-0.1,2-0.2,3.3-0.3c0,0,0,0,0-0.1c0-0.1-0.2-0.3-0.3-0.7c-1.3,0.1-1.8,0.2-3,0.3
			C229.9,358.2,229.9,358.4,229.9,358.7z"/>
	</g>
</g>
<g id="Layer_5" class="st0">
	<g class="st2">
		<path class="st4" d="M379.9,272.9c16.1,25.8,9.7,55.4-15.2,73.2c-2.8,1.8-5.1,5.5-5.9,8.7c-7.9,33.4-25.9,58.5-57.2,73.5
			c-1.3,0.8-2.7,1.6-4,2.4c-45.5,23.2-40.9,22.7-87.8,1.8c-33.5-15-55.4-39.8-64.9-75.5c-0.8-3.2-4.4-6-7.4-7.9
			c-18.7-11.3-34.5-47.3-14.9-71.9c-12.9-8.5-6.9-22.4-9.5-34.7c-2.3,0.9-4.4,1.9-6.5,2.3c-8.2,1.7-12.5-4.6-9.2-13.5
			c3.8-10.5,7.8-20.9,11.9-31.8c-10.5-2-20.3-3.2-30-5.7c-3.7-1.1-9-4.2-9.5-7.3c-0.6-2.8,3.1-8.1,6.6-9.9
			c12.9-7.5,26.3-14.3,40.4-21.7c-6.3-10.4-13-20.1-18.5-30.4c-2.2-3.9-3.4-10.1-1.9-13.6c1-2.5,8.2-3.3,12.5-2.8
			c14.1,1.1,27.9,3.3,43.4,5.3c-1.7-10.4-3.4-19.9-5.3-29.4c-0.6-2.8-1.5-5.7-1.3-8.4c0.3-3.5,0.5-8.9,2.7-10.2
			c2.9-1.5,8.4-1.3,11.4,0.3c17,8.8,33.7,18.1,51.4,27.9c6.2-10.4,12.1-20.7,18-31.3c7.2-12.3,11.5-12.8,20.3-1.9
			c8.4,10,16.8,20,25.8,31c11.3-12,21.8-23.5,32.8-34.3c2.7-2.8,8-5.8,11.2-5c3,0.7,5.6,6.1,6.6,10c2.9,12.3,4.9,25,7.6,38.3
			c15.8-5,30.9-9.7,46.3-13.9c3.9-1,10.4-1.1,11.7,1.1c2,3.2,1.9,9,0.3,13c-5.5,13.6-11.9,26.6-18.6,40.8
			c13.8,6.8,27.3,12.9,40.6,20c3.6,1.9,7.5,6.5,7.8,10c0,2.8-4.7,7-8.3,8.7c-9.7,4.9-19.9,8.6-31,13.3c4.6,11.3,8.9,22.2,13.6,32.7
			c2.6,6,1.8,9.8-3.5,14c-2.1,1.6-3.3,6.2-3.3,9.5C389.2,258.9,388.9,267.6,379.9,272.9z M334.1,371.8c0.8-1.4,1.7-3.1,2.5-4.7
			c5.2-11.3,5-11.7-6.9-16.2c-5.4-2-10.9-3.7-16.5-5.2c-6.2-1.5-10.3-4.6-8.3-11.2c2.1-6.8,7.2-7.1,13-4.9c7.4,2.7,15,5,22.6,7.5
			c1.8,0.7,4.2,1.3,6.1,0.5c16.1-6,27-24,25-41.3c-1.2-9.2-12.4-20.7-20.4-20.7c-66.7,1.2-133.6,2.2-200.4,3.6
			c-2.8,0-6.1,1.6-8.2,3.3c-17.3,15.8-13.7,43.1,7.2,54.9c5.6,3.3,10.8,4.9,17.4,1.1c5.9-3.6,13-4.9,19.7-7.1
			c6.2-2.5,11.9-2.2,14.1,5.1c1.8,6.8-2.9,9.4-8.8,11.2c-6.3,2.1-12.5,4.6-18.9,6.7c-7.6,2.7-10.2,7.1-5.6,14.4
			c1.5,2.3,2.8,4.5,3.6,5.9c9.6-6.5,18.2-12.8,27.5-18.2c2.6-1.4,9.3,1,10.6,3.6c1.4,2.6-0.7,8.2-3.1,10.9
			c-3.2,3.8-8.7,5.4-12.8,8.4c-13.9,10.6-13.5,15.4,1.8,25.1c5.1-6.1,10-12.4,15-18.2c3.9-4.3,8.4-7.7,14.1-2.8
			c5.4,4.7,2.9,9.5-1.1,14.1c-4.4,5.3-8.5,10.7-13.9,17.9c14.5,6,27.1,11.5,39.9,16.2c2.7,1.2,6.6,0.8,9.3-0.2
			c12.5-5.5,24.7-11.2,38.7-18c-5.1-6.4-8.8-11.5-13-16.2c-4-4.6-8.3-9-2.8-14.7c6.1-6.2,10.9-1.5,15.3,3.3
			c4.8,5.3,9.7,11,14.5,16.3c14.9-10.6,15-15.5,0.2-25.9c-2.7-1.8-5.4-3.5-8-4.9c-5.2-2.8-9.8-6.2-6.6-12.7
			c3.3-6.8,9.4-5.6,14.8-2.5C319.2,361.3,326.5,366.5,334.1,371.8z M121.4,216.2c12.1-7.2,21.8-13.3,32-18.6
			c5.5-2.9,11.8-5,17.7-5.1c49.9-1.3,99.6-2.1,149.5-2.8c5.5-0.1,11.4,1.5,16.3,3.9c10.9,5.3,21.4,11.5,34.4,18.5
			c-2.9-7.1-4.7-11.7-7.1-16.4c-4.2-8.1-1.4-13.3,6.6-16.3c6.6-2.6,13.3-5.4,21.4-9c-11.6-5.6-21.1-10.7-31.1-14.9
			c-8.5-3.6-9.9-9-6-16.7c4.6-9.7,8.9-19.4,14.2-30.9c-13.3,4.2-24.8,7.5-36.2,11.1c-10.7,3.4-14.4,1.1-16.3-10
			c-1.8-9.2-3.4-18.7-5.2-27.9c-0.9-0.5-1.9-1-2.6-1.4c-8.2,9-16.3,18.4-24.8,27.4c-7.8,8.3-12.1,8.2-19.3-0.6
			c-8-9.5-15.9-19.3-24.8-29.5c-6,10.6-11.2,19.7-16.4,28.8c-5.6,9.8-8.7,10.6-18.5,5.4c-13.1-7-26.2-14.4-40.4-22
			c1.9,10.2,3.3,18.9,5,27.7c2.7,13.7,0.4,16.4-13.1,15.3c-2.9-0.3-5.6-0.9-8.5-1.2c-9.3-1-18.5-2-29.2-3.1
			c5.9,9.6,10.3,17.2,15.3,24.4c5.1,7.6,2.9,12.3-4.7,16.1c-8.1,4.2-16.2,8.4-26.2,13.5c6.1,1.1,9.5,1.7,12.8,2.3
			c12.4,2.1,14.5,6,10.3,17.8C125.1,205.3,123.8,209.5,121.4,216.2z M250.7,260c13.3-0.2,26.9-0.5,40.2-0.7
			c26.9-0.5,30.4-4.2,29.1-30.8c0-0.6,0-1.2-0.2-1.9c-0.9-13.6-7-19.4-20.9-19.2c-29.1,0.6-58.1,1.2-87.3,1.4
			c-28.5,0.6-33.4,5.9-30.7,34.3c0.1,0.4,0,0.6,0.1,1c1.5,11.5,7.5,16.9,19.2,16.7C217.3,260.7,234.1,260.3,250.7,260z M166.9,261.2
			c-0.2-17.2-0.6-34.2-0.8-51.5c-10.8,6.4-22,13-33,19.9c-1.7,0.9-3.4,3.4-3.4,5.2c-0.3,9,0.1,18.1,0.3,27.4
			C143.8,261.6,156.2,261.2,166.9,261.2z M335.5,257.6c11.5-0.3,23.8-0.4,37-0.6c0-6.8,0.1-12.8-0.5-18.9c-0.2-2.5-1.3-6.2-2.9-7.1
			c-10.7-6.3-21.8-12.3-34.4-19.1C334.9,228.5,335.2,242.7,335.5,257.6z"/>
		<path class="st4" d="M204.4,287.1c7.4,0,12.5,5.2,12.5,12.5c0,7.4-5.7,12.8-12.4,12.9c-6.4-0.1-12.8-6.3-13-12.8
			C191.6,292.7,197.3,287.3,204.4,287.1z"/>
		<path class="st4" d="M287,297.8c0-7.4,5.4-12.4,12.9-12c7.2,0.2,12.7,5.9,12.6,12.9c-0.2,6.6-6.9,12.8-13.1,12.5
			C292,310.6,286.8,305.1,287,297.8z"/>
	</g>
</g>
<g id="Layer_6" class="st0">
	<g class="st2">
		<path d="M379.9,272.9c16.1,25.8,9.7,55.4-15.2,73.2c-2.8,1.8-5.1,5.5-5.9,8.7c-7.9,33.4-25.9,58.5-57.2,73.5
			c-1.3,0.8-2.7,1.6-4,2.4c-45.5,23.2-40.9,22.7-87.8,1.8c-33.5-15-55.4-39.8-64.9-75.5c-0.8-3.2-4.4-6-7.4-7.9
			c-18.7-11.3-34.5-47.3-14.9-71.9c-12.9-8.5-6.9-22.4-9.5-34.7c-2.3,0.9-4.4,1.9-6.5,2.3c-8.2,1.7-12.5-4.6-9.2-13.5
			c3.8-10.5,7.8-20.9,11.9-31.8c-10.5-2-20.3-3.2-30-5.7c-3.7-1.1-9-4.2-9.5-7.3c-0.6-2.8,3.1-8.1,6.6-9.9
			c12.9-7.5,26.3-14.3,40.4-21.7c-6.3-10.4-13-20.1-18.5-30.4c-2.2-3.9-3.4-10.1-1.9-13.6c1-2.5,8.2-3.3,12.5-2.8
			c14.1,1.1,27.9,3.3,43.4,5.3c-1.7-10.4-3.4-19.9-5.3-29.4c-0.6-2.8-1.5-5.7-1.3-8.4c0.3-3.5,0.5-8.9,2.7-10.2
			c2.9-1.5,8.4-1.3,11.4,0.3c17,8.8,33.7,18.1,51.4,27.9c6.2-10.4,12.1-20.7,18-31.3c7.2-12.3,11.5-12.8,20.3-1.9
			c8.4,10,16.8,20,25.8,31c11.3-12,21.8-23.5,32.8-34.3c2.7-2.8,8-5.8,11.2-5c3,0.7,5.6,6.1,6.6,10c2.9,12.3,4.9,25,7.6,38.3
			c15.8-5,30.9-9.7,46.3-13.9c3.9-1,10.4-1.1,11.7,1.1c2,3.2,1.9,9,0.3,13c-5.5,13.6-11.9,26.6-18.6,40.8
			c13.8,6.8,27.3,12.9,40.6,20c3.6,1.9,7.5,6.5,7.8,10c0,2.8-4.7,7-8.3,8.7c-9.7,4.9-19.9,8.6-31,13.3c4.6,11.3,8.9,22.2,13.6,32.7
			c2.6,6,1.8,9.8-3.5,14c-2.1,1.6-3.3,6.2-3.3,9.5C389.2,258.9,388.9,267.6,379.9,272.9z M334.1,371.8c0.8-1.4,1.7-3.1,2.5-4.7
			c5.2-11.3,5-11.7-6.9-16.2c-5.4-2-10.9-3.7-16.5-5.2c-6.2-1.5-10.3-4.6-8.3-11.2c2.1-6.8,7.2-7.1,13-4.9c7.4,2.7,15,5,22.6,7.5
			c1.8,0.7,4.2,1.3,6.1,0.5c16.1-6,27-24,25-41.3c-1.2-9.2-12.4-20.7-20.4-20.7c-66.7,1.2-133.6,2.2-200.4,3.6
			c-2.8,0-6.1,1.6-8.2,3.3c-17.3,15.8-13.7,43.1,7.2,54.9c5.6,3.3,10.8,4.9,17.4,1.1c5.9-3.6,13-4.9,19.7-7.1
			c6.2-2.5,11.9-2.2,14.1,5.1c1.8,6.8-2.9,9.4-8.8,11.2c-6.3,2.1-12.5,4.6-18.9,6.7c-7.6,2.7-10.2,7.1-5.6,14.4
			c1.5,2.3,2.8,4.5,3.6,5.9c9.6-6.5,18.2-12.8,27.5-18.2c2.6-1.4,9.3,1,10.6,3.6c1.4,2.6-0.7,8.2-3.1,10.9
			c-3.2,3.8-8.7,5.4-12.8,8.4c-13.9,10.6-13.5,15.4,1.8,25.1c5.1-6.1,10-12.4,15-18.2c3.9-4.3,8.4-7.7,14.1-2.8
			c5.4,4.7,2.9,9.5-1.1,14.1c-4.4,5.3-8.5,10.7-13.9,17.9c14.5,6,27.1,11.5,39.9,16.2c2.7,1.2,6.6,0.8,9.3-0.2
			c12.5-5.5,24.7-11.2,38.7-18c-5.1-6.4-8.8-11.5-13-16.2c-4-4.6-8.3-9-2.8-14.7c6.1-6.2,10.9-1.5,15.3,3.3
			c4.8,5.3,9.7,11,14.5,16.3c14.9-10.6,15-15.5,0.2-25.9c-2.7-1.8-5.4-3.5-8-4.9c-5.2-2.8-9.8-6.2-6.6-12.7
			c3.3-6.8,9.4-5.6,14.8-2.5C319.2,361.3,326.5,366.5,334.1,371.8z M121.4,216.2c12.1-7.2,21.8-13.3,32-18.6
			c5.5-2.9,11.8-5,17.7-5.1c49.9-1.3,99.6-2.1,149.5-2.8c5.5-0.1,11.4,1.5,16.3,3.9c10.9,5.3,21.4,11.5,34.4,18.5
			c-2.9-7.1-4.7-11.7-7.1-16.4c-4.2-8.1-1.4-13.3,6.6-16.3c6.6-2.6,13.3-5.4,21.4-9c-11.6-5.6-21.1-10.7-31.1-14.9
			c-8.5-3.6-9.9-9-6-16.7c4.6-9.7,8.9-19.4,14.2-30.9c-13.3,4.2-24.8,7.5-36.2,11.1c-10.7,3.4-14.4,1.1-16.3-10
			c-1.8-9.2-3.4-18.7-5.2-27.9c-0.9-0.5-1.9-1-2.6-1.4c-8.2,9-16.3,18.4-24.8,27.4c-7.8,8.3-12.1,8.2-19.3-0.6
			c-8-9.5-15.9-19.3-24.8-29.5c-6,10.6-11.2,19.7-16.4,28.8c-5.6,9.8-8.7,10.6-18.5,5.4c-13.1-7-26.2-14.4-40.4-22
			c1.9,10.2,3.3,18.9,5,27.7c2.7,13.7,0.4,16.4-13.1,15.3c-2.9-0.3-5.6-0.9-8.5-1.2c-9.3-1-18.5-2-29.2-3.1
			c5.9,9.6,10.3,17.2,15.3,24.4c5.1,7.6,2.9,12.3-4.7,16.1c-8.1,4.2-16.2,8.4-26.2,13.5c6.1,1.1,9.5,1.7,12.8,2.3
			c12.4,2.1,14.5,6,10.3,17.8C125.1,205.3,123.8,209.5,121.4,216.2z M250.7,260c13.3-0.2,26.9-0.5,40.2-0.7
			c26.9-0.5,30.4-4.2,29.1-30.8c0-0.6,0-1.2-0.2-1.9c-0.9-13.6-7-19.4-20.9-19.2c-29.1,0.6-58.1,1.2-87.3,1.4
			c-28.5,0.6-33.4,5.9-30.7,34.3c0.1,0.4,0,0.6,0.1,1c1.5,11.5,7.5,16.9,19.2,16.7C217.3,260.7,234.1,260.3,250.7,260z M166.9,261.2
			c-0.2-17.2-0.6-34.2-0.8-51.5c-10.8,6.4-22,13-33,19.9c-1.7,0.9-3.4,3.4-3.4,5.2c-0.3,9,0.1,18.1,0.3,27.4
			C143.8,261.6,156.2,261.2,166.9,261.2z M335.5,257.6c11.5-0.3,23.8-0.4,37-0.6c0-6.8,0.1-12.8-0.5-18.9c-0.2-2.5-1.3-6.2-2.9-7.1
			c-10.7-6.3-21.8-12.3-34.4-19.1C334.9,228.5,335.2,242.7,335.5,257.6z"/>
		<path d="M204.4,287.1c7.4,0,12.5,5.2,12.5,12.5c0,7.4-5.7,12.8-12.4,12.9c-6.4-0.1-12.8-6.3-13-12.8
			C191.6,292.7,197.3,287.3,204.4,287.1z"/>
		<path d="M287,297.8c0-7.4,5.4-12.4,12.9-12c7.2,0.2,12.7,5.9,12.6,12.9c-0.2,6.6-6.9,12.8-13.1,12.5
			C292,310.6,286.8,305.1,287,297.8z"/>
	</g>
</g>
<g id="Layer_7" class="st0">
	<ellipse class="st13" cx="251.4" cy="249.3" rx="200" ry="198.8"/>
	<path class="st14" d="M296.4,435.3c-110.5,0-200-89.7-200-200.2c0-83.3,50.8-154.5,123.2-184.6c-95,15.2-167.8,97.8-167.8,197.4
		c0,110.6,89.5,200.2,200,200.2c27.1,0,53.2-5.3,76.8-15.2C318,434.2,307,435.3,296.4,435.3z"/>
	<polygon class="st15" points="203.4,345.9 179.4,332.7 155.4,345.2 160.2,318.5 141,298.9 168.1,295.3 180.4,271.1 192.1,295.7 
		218.9,300.3 199.3,318.8 	"/>
	<polygon class="st15" points="355.4,308.5 331.7,295.3 307.4,307.8 312.5,281.1 293.3,261.5 320.4,258.3 332.7,233.7 344.4,258.7 
		371.2,262.9 351.3,281.4 	"/>
	<polygon class="st15" points="236,209.2 212,196 188,208.5 192.8,181.4 173.6,162.2 200.7,158.6 213,134.4 224.7,159 251.4,163.3 
		231.5,182.1 	"/>
	<polygon class="st15" points="355.4,194.2 331.7,181.4 307.4,193.5 312.5,166.8 293.3,147.6 320.4,144 332.7,119.8 344.4,144.4 
		371.2,148.7 351.3,167.5 	"/>
</g>
<g id="Layer_8" class="st0">
	<ellipse class="st8" cx="251.4" cy="249.3" rx="200" ry="198.8"/>
	<path class="st16" d="M296.4,435.3c-110.5,0-200-89.7-200-200.2c0-83.3,50.8-154.5,123.2-184.6c-95,15.2-167.8,97.8-167.8,197.4
		c0,110.6,89.5,200.2,200,200.2c27.1,0,53.2-5.3,76.8-15.2C318,434.2,307,435.3,296.4,435.3z"/>
	<polygon class="st2" points="203.4,345.9 179.4,332.7 155.4,345.2 160.2,318.5 141,298.9 168.1,295.3 180.4,271.1 192.1,295.7 
		218.9,300.3 199.3,318.8 	"/>
	<polygon class="st2" points="355.4,308.5 331.7,295.3 307.4,307.8 312.5,281.1 293.3,261.5 320.4,258.3 332.7,233.7 344.4,258.7 
		371.2,262.9 351.3,281.4 	"/>
	<polygon class="st2" points="236,209.2 212,196 188,208.5 192.8,181.4 173.6,162.2 200.7,158.6 213,134.4 224.7,159 251.4,163.3 
		231.5,182.1 	"/>
	<polygon class="st2" points="355.4,194.2 331.7,181.4 307.4,193.5 312.5,166.8 293.3,147.6 320.4,144 332.7,119.8 344.4,144.4 
		371.2,148.7 351.3,167.5 	"/>
</g>
<g id="Layer_9" class="st0">
	<g class="st2">
		
			<rect x="351.3" y="73.7" transform="matrix(3.209954e-03 -1 1 3.209954e-03 277.708 465.5948)" class="st4" width="42.3" height="39.5"/>
		<path class="st4" d="M431.1,241.8l0.2-42.3l-39.5-0.2l0.2-42.3l-39.5-0.2l0.2-42.3l-39.5-0.2l-0.2,42.3l-39.5-0.2l-39.5-0.2v0.5
			h-0.7h-39.5v-42.3h-39.5v42.3h-39.5v42.3H75.3v42.3H35.8v42.3v42.3v42.3h39.5v-42.3v-42.3h39.5v42.3v42.3h39.5v-42.3h39.5h39.5
			h15.9h-15.6h39.5v-0.2h0.2l39.5,0.2l39.5,0.2l-0.2,42.3l39.5,0.2l0.2-42.3l0.2-42.3l38.8,0l-0.2,42.3l-0.2,42.3l39.5,0.2l0.2-42.3
			l0.2-42.3l0.2-42.3L431.1,241.8z M194,241.3h-39.5V199H194V241.3z M273.1,325.6L273.1,325.6L273.1,325.6L273.1,325.6z
			 M352.3,241.3l-39.5-0.2l0.2-42.3l39.5,0.2L352.3,241.3z"/>
		<polygon class="st4" points="273.1,367.9 273.1,410.1 312.4,410.1 351.9,410.4 351.9,368.1 312.6,368.1 		"/>
		<rect x="115.3" y="72.5" class="st4" width="39.5" height="42.3"/>
		<polygon class="st4" points="194,410.4 233.3,410.4 233.3,368.1 194,368.1 154.5,368.1 154.5,410.4 		"/>
	</g>
</g>
<g id="Layer_10" class="st0">
	<g class="st2">
		
			<rect x="351.3" y="73.7" transform="matrix(3.209954e-03 -1 1 3.209954e-03 277.708 465.5948)" class="st3" width="42.3" height="39.5"/>
		<path class="st3" d="M431.1,241.8l0.2-42.3l-39.5-0.2l0.2-42.3l-39.5-0.2l0.2-42.3l-39.5-0.2l-0.2,42.3l-39.5-0.2l-39.5-0.2v0.5
			h-0.7h-39.5v-42.3h-39.5v42.3h-39.5v42.3H75.3v42.3H35.8v42.3v42.3v42.3h39.5v-42.3v-42.3h39.5v42.3v42.3h39.5v-42.3h39.5h39.5
			h15.9h-15.6h39.5v-0.2h0.2l39.5,0.2l39.5,0.2l-0.2,42.3l39.5,0.2l0.2-42.3l0.2-42.3l38.8,0l-0.2,42.3l-0.2,42.3l39.5,0.2l0.2-42.3
			l0.2-42.3l0.2-42.3L431.1,241.8z M194,241.3h-39.5V199H194V241.3z M273.1,325.6L273.1,325.6L273.1,325.6L273.1,325.6z
			 M352.3,241.3l-39.5-0.2l0.2-42.3l39.5,0.2L352.3,241.3z"/>
		<polygon class="st3" points="273.1,367.9 273.1,410.1 312.4,410.1 351.9,410.4 351.9,368.1 312.6,368.1 		"/>
		<rect x="115.3" y="72.5" class="st3" width="39.5" height="42.3"/>
		<polygon class="st3" points="194,410.4 233.3,410.4 233.3,368.1 194,368.1 154.5,368.1 154.5,410.4 		"/>
	</g>
</g>
</svg>
